<svg width="140" height="40" viewBox="0 0 140 40" fill="none" xmlns="http://www.w3.org/2000/svg">
<path d="M24.4382 8.13818L24.4041 8.02327C24.1712 8.08228 23.9352 8.13196 23.6929 8.17234L23.4755 8.2065L23.2364 8.23755L22.9942 8.25929C22.8327 8.27171 22.6681 8.28103 22.5004 8.28724H22.2395C21.1588 8.27741 20.0842 8.1239 19.0439 7.83073V7.83073L18.6961 7.73135L18.5035 7.68787L18.4228 7.66303L18.3421 7.63818C18.457 7.76551 18.5625 7.89905 18.6526 8.03259L18.7427 8.14749L18.87 8.32761L18.929 8.41767C19.1177 8.68785 19.2869 8.97118 19.4352 9.26549C19.4569 9.30586 19.4756 9.34623 19.4942 9.38971C19.5033 9.40321 19.5106 9.41782 19.516 9.43319C19.5377 9.47667 19.5563 9.52014 19.575 9.56673L19.6309 9.69406C19.6495 9.73753 19.6681 9.78412 19.6837 9.82759C19.6992 9.87107 19.7271 9.93629 19.7458 9.98908C19.7644 10.0419 19.7892 10.104 19.8079 10.1599C19.8451 10.2748 19.8824 10.3928 19.9166 10.5108C19.9507 10.6288 19.9756 10.7251 20.0004 10.8369L20.0377 11.0015C20.0687 11.1443 20.0936 11.2903 20.1153 11.4363C20.1153 11.4891 20.134 11.545 20.1402 11.6009C20.1464 11.6568 20.1402 11.7189 20.1619 11.781C20.1836 11.8431 20.1619 11.8493 20.1619 11.8866C20.1619 11.9238 20.1619 11.9766 20.1619 12.0232V12.163C20.1619 12.2127 20.1619 12.2623 20.1619 12.312C20.1619 12.3617 20.1619 12.4673 20.1619 12.5481C20.1619 12.6288 20.1619 12.6909 20.1619 12.7592C20.1619 12.8276 20.1619 12.9362 20.1619 13.0232C20.1619 13.1102 20.1619 13.1412 20.1619 13.1971C20.1619 13.253 20.1433 13.3834 20.1308 13.4735C20.1184 13.5636 20.0998 13.7157 20.0781 13.8369C20.0781 13.8772 20.0781 13.9176 20.0563 13.958C20.0156 14.1748 19.9637 14.3893 19.901 14.6008C19.901 14.6536 19.87 14.7064 19.8545 14.7592L19.7986 14.9331C19.7271 15.1443 19.6464 15.3493 19.5563 15.5542L19.5004 15.6784C19.5004 15.7157 19.4632 15.7561 19.4445 15.7934L19.3793 15.9269C19.3607 15.9611 19.342 15.9983 19.3234 16.0294C19.3048 16.0604 19.2706 16.1319 19.2427 16.1815C19.2147 16.2312 19.2116 16.2374 19.193 16.2654C19.1743 16.2933 19.1402 16.3617 19.1091 16.4083C19.0781 16.4548 19.0066 16.5728 18.9538 16.6536L18.8731 16.7747C18.7986 16.8834 18.7209 16.989 18.6402 17.0853C18.6122 17.1256 18.5812 17.1629 18.5532 17.2002L18.4414 17.3368L18.3265 17.4672L18.2085 17.5977C18.1706 17.6424 18.1301 17.6849 18.0874 17.725L17.9663 17.8492L17.839 17.9703C17.5838 18.2131 17.3108 18.4363 17.0222 18.638L16.8793 18.7343C16.8328 18.7685 16.7831 18.7995 16.7334 18.8306C16.6837 18.8616 16.5439 18.9486 16.4477 19.0045L16.2924 19.0914C15.7588 19.3826 15.1914 19.6069 14.603 19.7591L14.311 19.8275L14.0968 19.8709L13.926 19.8989H13.8235L13.6899 19.9175L13.3794 19.9517H13.1962H13.0098H12.7552C11.7488 19.9977 10.7436 19.8391 9.80017 19.4857C8.85679 19.1323 7.99484 18.5912 7.26642 17.8953C6.53799 17.1994 5.95821 16.3631 5.56209 15.4368C5.16597 14.5105 4.96174 13.5135 4.96174 12.5061C4.96174 11.4987 5.16597 10.5017 5.56209 9.57547C5.95821 8.6492 6.53799 7.81284 7.26642 7.11693C7.99484 6.42102 8.85679 5.88001 9.80017 5.52657C10.7436 5.17313 11.7488 5.01461 12.7552 5.06058H13.0098H13.1806H13.3514C13.5812 5.08232 13.808 5.10716 14.0315 5.14753L14.1558 5.22828L14.2645 5.25002L14.4228 5.28418H14.4477L14.6154 5.32455L14.7924 5.37424L14.9663 5.42703L15.134 5.47983C15.2955 5.53573 15.4446 5.59473 15.6154 5.66305L15.6713 5.55436C15.684 5.54991 15.6964 5.54472 15.7085 5.53883C15.9104 5.16617 17.1123 3.03576 19.047 1.77491C17.2149 0.70264 15.1385 0.117791 13.016 0.0761719H12.749C9.46915 0.12788 6.34116 1.46708 4.04005 3.80475C1.73894 6.14243 0.449219 9.29113 0.449219 12.5713C0.449219 15.8516 1.73894 19.0003 4.04005 21.3379C6.34116 23.6756 9.46915 25.0148 12.749 25.0665H13.0036C15.0036 25.0262 16.9646 24.5063 18.7218 23.5505C20.479 22.5947 21.981 21.231 23.1016 19.5739C24.2221 17.9169 24.9283 16.015 25.161 14.0282C25.3936 12.0415 25.1457 10.0279 24.4382 8.15681V8.13818ZM21.9538 4.10096C21.9165 4.06059 21.8793 4.01711 21.8389 3.97674L21.6091 4.04817L21.3638 4.12891L21.1371 4.20655C20.8265 4.31525 20.5408 4.43015 20.2613 4.54506L20.0532 4.63512L19.8513 4.72207L19.4632 4.89909L19.2768 4.98915C18.8669 5.1879 18.4973 5.38666 18.1775 5.56989L18.0657 5.632L17.9973 5.67237L17.8669 5.75001C17.6464 5.88044 17.457 5.99845 17.3017 6.10094L17.2272 6.15062L16.9942 6.30901L16.9508 6.34006L16.9011 6.37422C17.075 6.49223 17.2458 6.61646 17.4104 6.75C17.4247 6.75885 17.4405 6.76515 17.457 6.76863L17.5781 6.82142L17.693 6.8649L17.7986 6.90838C17.8762 6.93633 17.957 6.97049 18.0408 6.99844L18.2147 7.06055L18.2551 7.07608L18.516 7.16303L18.7924 7.24999L18.9942 7.30899L19.2085 7.368L19.429 7.42701L19.7054 7.49222L19.8886 7.53259L20.1992 7.59781C20.401 7.63508 20.6091 7.66924 20.8203 7.69719H20.8948L21.0749 7.71893H21.2085C21.3575 7.71893 21.519 7.74688 21.6588 7.75309H21.901H22.4352C23.0266 7.74023 23.615 7.66318 24.1898 7.52328C23.6376 6.26592 22.8798 5.10932 21.9476 4.10096H21.9538ZM19.7799 2.23763C19.6992 2.18173 19.6184 2.12583 19.5346 2.07304L19.3669 2.17552L19.3017 2.219L19.1526 2.32148L18.9818 2.44571L18.9476 2.47055L18.8172 2.57303C18.693 2.66931 18.575 2.76868 18.4601 2.88359L18.3141 3.01713C18.2116 3.1134 18.1122 3.20967 18.0035 3.30905L17.9321 3.38048L17.8172 3.5047C17.7737 3.54818 17.7303 3.59786 17.6899 3.64134C17.5532 3.79662 17.4228 3.9519 17.3017 4.10096L17.1837 4.25003L17.075 4.39288C16.9777 4.51918 16.8876 4.6434 16.8048 4.76555L16.7303 4.87424C16.547 5.14132 16.4197 5.37424 16.3048 5.54194C16.2953 5.56164 16.2838 5.58036 16.2707 5.59784C16.252 5.6351 16.2303 5.66926 16.2179 5.69721C16.2054 5.72516 16.1992 5.73138 16.1899 5.7438C16.1806 5.75622 16.1651 5.78727 16.1589 5.8028C16.1526 5.81833 16.1589 5.81833 16.1589 5.82144C16.1589 5.82454 16.1589 5.82144 16.1589 5.82144C16.3607 5.691 16.5564 5.56368 16.7551 5.44256L16.9228 5.34318C16.9331 5.34208 16.9436 5.34208 16.9539 5.34318V5.34318C18.3426 4.51859 19.8545 3.922 21.4321 3.57612C20.9194 3.07776 20.3645 2.62473 19.7737 2.22211L19.7799 2.23763Z" fill="#F69000"/>
<path d="M12.7471 34.0212C8.51181 34.0334 4.38895 32.6591 1.00807 30.1082C0.472705 29.7058 0.119097 29.1073 0.0250389 28.4442C-0.0690193 27.7812 0.104177 27.1079 0.506527 26.5725C0.908877 26.0372 1.50742 25.6836 2.17049 25.5895C2.83355 25.4954 3.50683 25.6686 4.0422 26.071C6.55445 27.9536 9.60924 28.9712 12.7486 28.9712C15.888 28.9712 18.9428 27.9536 21.455 26.071C21.9904 25.6686 22.6637 25.4954 23.3267 25.5895C23.9898 25.6836 24.5883 26.0372 24.9907 26.5725C25.393 27.1079 25.5662 27.7812 25.4722 28.4442C25.3781 29.1073 25.0245 29.7058 24.4891 30.1082C21.1069 32.6587 16.9832 34.0329 12.7471 34.0212V34.0212Z" fill="#00AB55"/>
<path d="M4.41473 33.9019C4.37746 33.9019 4.3402 33.9019 4.29982 33.9019H4.16318C3.75718 33.8889 3.35272 33.9577 2.97381 34.1041C2.5949 34.2505 2.24929 34.4715 1.9575 34.7541C1.66571 35.0367 1.4337 35.3751 1.27525 35.7491C1.1168 36.1231 1.03516 36.5252 1.03516 36.9314C1.03516 37.3376 1.1168 37.7397 1.27525 38.1137C1.4337 38.4877 1.66571 38.8261 1.9575 39.1087C2.24929 39.3913 2.5949 39.6123 2.97381 39.7587C3.35272 39.9051 3.75718 39.9739 4.16318 39.9609H4.29982H4.41473C5.17068 39.8966 5.87498 39.551 6.38824 38.9923C6.9015 38.4335 7.18631 37.7025 7.18631 36.9438C7.18631 36.1852 6.9015 35.4541 6.38824 34.8954C5.87498 34.3367 5.17068 33.991 4.41473 33.9268V33.9019ZM4.16318 38.6845C3.69453 38.6845 3.24507 38.4983 2.91368 38.1669C2.58229 37.8355 2.39612 37.3861 2.39612 36.9174C2.39612 36.4488 2.58229 35.9993 2.91368 35.6679C3.24507 35.3365 3.69453 35.1504 4.16318 35.1504C4.24737 35.1504 4.33145 35.1566 4.41473 35.169H4.49237H4.56069C4.79556 35.2283 5.01622 35.3339 5.20975 35.4796L5.25323 35.5137C5.27807 35.5355 5.30292 35.5541 5.32776 35.5789C5.34782 35.5938 5.36652 35.6105 5.38366 35.6286L5.43956 35.6845C5.45876 35.7027 5.47642 35.7224 5.49235 35.7435C5.51056 35.7618 5.52719 35.7815 5.54204 35.8025C5.56011 35.8212 5.57576 35.8421 5.58863 35.8646C5.65075 35.9473 5.70483 36.0357 5.75012 36.1286C5.76176 36.1518 5.77213 36.1757 5.78117 36.2C5.8254 36.3 5.85973 36.404 5.88365 36.5106C5.88542 36.5354 5.88542 36.5603 5.88365 36.5851V36.6441V36.7094C5.88365 36.7746 5.88365 36.8398 5.88365 36.9081C5.88365 36.9764 5.88365 37.0448 5.88365 37.11V37.1752V37.2342C5.88515 37.259 5.88515 37.2839 5.88365 37.3087C5.85973 37.4153 5.8254 37.5194 5.78117 37.6193C5.77213 37.6436 5.76176 37.6675 5.75012 37.6907C5.70411 37.7833 5.65007 37.8716 5.58863 37.9547C5.57576 37.9773 5.56011 37.9981 5.54204 38.0168C5.52719 38.0378 5.51056 38.0576 5.49235 38.0758L5.45509 38.1503C5.43804 38.1705 5.41934 38.1892 5.39919 38.2062C5.38205 38.2244 5.36334 38.241 5.34329 38.2559L5.26876 38.318L5.22528 38.3522C5.03242 38.499 4.81152 38.6047 4.57622 38.6627H4.5079H4.43026C4.34173 38.6752 4.25255 38.6825 4.16318 38.6845V38.6845Z" fill="#252525"/>
<path d="M21.8291 33.9062H21.7173H21.5776C20.7909 33.9314 20.0449 34.2617 19.4973 34.827C18.9497 35.3924 18.6436 36.1486 18.6436 36.9357C18.6436 37.7228 18.9497 38.479 19.4973 39.0444C20.0449 39.6098 20.7909 39.94 21.5776 39.9652H21.7173H21.8291C22.5851 39.9009 23.2894 39.5553 23.8026 38.9966C24.3159 38.4378 24.6007 37.7068 24.6007 36.9481C24.6007 36.1895 24.3159 35.4584 23.8026 34.8997C23.2894 34.341 22.5851 33.9953 21.8291 33.9311V33.9062ZM21.5776 38.6888C21.1089 38.6888 20.6595 38.5026 20.3281 38.1712C19.9967 37.8398 19.8105 37.3904 19.8105 36.9217C19.8105 36.4531 19.9967 36.0036 20.3281 35.6722C20.6595 35.3408 21.1089 35.1547 21.5776 35.1547C21.6618 35.1545 21.7459 35.1607 21.8291 35.1733H21.9099H21.9782C22.2123 35.232 22.4321 35.3377 22.6241 35.4839L22.6707 35.518L22.7453 35.5832L22.8012 35.6329L22.8571 35.6888C22.8763 35.707 22.8939 35.7267 22.9098 35.7478C22.928 35.7653 22.9436 35.7852 22.9564 35.8068C22.9747 35.8262 22.9913 35.8469 23.0061 35.869C23.0672 35.9517 23.1203 36.0401 23.1645 36.1329C23.1771 36.1561 23.1885 36.18 23.1987 36.2044C23.2429 36.3043 23.2772 36.4083 23.3011 36.5149C23.3011 36.5398 23.3011 36.5615 23.3011 36.5894C23.3026 36.6091 23.3026 36.6288 23.3011 36.6484C23.3027 36.6702 23.3027 36.692 23.3011 36.7137C23.3059 36.7798 23.3059 36.8463 23.3011 36.9124C23.3059 36.9796 23.3059 37.0471 23.3011 37.1143C23.3027 37.136 23.3027 37.1578 23.3011 37.1795C23.3026 37.1991 23.3026 37.2189 23.3011 37.2385C23.3011 37.2633 23.3011 37.2882 23.3011 37.313C23.2772 37.4197 23.2429 37.5237 23.1987 37.6236C23.1885 37.648 23.1771 37.6718 23.1645 37.695C23.1196 37.7875 23.0666 37.8758 23.0061 37.959C22.9913 37.981 22.9747 38.0018 22.9564 38.0211C22.9436 38.0428 22.928 38.0626 22.9098 38.0801L22.8446 38.1546L22.7887 38.2105L22.7328 38.2602L22.6583 38.3223L22.6117 38.3565C22.4203 38.5037 22.2003 38.6095 21.9658 38.6671H21.8974H21.8167C21.7374 38.6787 21.6576 38.686 21.5776 38.6888V38.6888Z" fill="#252525"/>
<path d="M30.6189 0.212984V0.265779C30.5971 1.07322 30.2276 3.64772 26.7928 6.3216C26.0327 6.91387 25.155 7.33734 24.2183 7.56382C23.6435 7.70373 23.0552 7.78078 22.4637 7.79363H21.9233H21.6811C21.5289 7.79363 21.3705 7.775 21.2308 7.75947H21.0973L20.914 7.7191H20.8395C20.6252 7.69115 20.4171 7.65699 20.2184 7.61972L19.9078 7.55451L19.7246 7.51413L19.4389 7.4365L19.2184 7.37749L19.0041 7.31848L18.8178 7.25948L18.5414 7.17252L18.265 7.09799L18.2246 7.08246L18.0507 7.02035C17.9669 6.9924 17.8861 6.95824 17.8085 6.93029L17.7029 6.88681L17.5756 6.82781L17.4576 6.78744C17.4411 6.78396 17.4253 6.77766 17.411 6.7688V6.7688L17.3333 6.73775L17.2215 6.68806L17.1718 6.66321L17.1222 6.64147L17.0352 6.6011L16.9948 6.58247L16.8954 6.53589L16.8582 6.51725L16.7836 6.47688L16.9017 6.38993L16.9513 6.35576L16.9948 6.32471L17.2277 6.16633L17.3023 6.11664C17.4576 6.01415 17.647 5.89614 17.8675 5.76571L17.9979 5.68807L18.0662 5.6477L18.178 5.58559C18.4886 5.40236 18.8675 5.2036 19.2774 5.00485L19.4637 4.91479L19.8519 4.73777L20.0538 4.65082L20.2619 4.56076C20.5414 4.44585 20.8333 4.33095 21.1376 4.22225L21.3643 4.14461L21.6128 4.05455L21.8395 3.98312C22.0662 3.9148 22.2929 3.84958 22.5258 3.79058C22.591 3.77505 22.6531 3.75642 22.7184 3.744C23.0289 3.66636 23.3581 3.59803 23.6904 3.54213L23.8767 3.51108L24.1096 3.47692C24.207 3.46036 24.3032 3.44793 24.3985 3.43965L24.5537 3.42102H24.6935L24.914 3.40238L25.1345 3.38686C25.2835 3.38686 25.445 3.38686 25.5879 3.36822H25.563H25.532C25.4606 3.36822 25.3146 3.33406 25.1065 3.31543H25.0196H24.914L24.6904 3.2999H24.4295H24.1562C23.2327 3.30594 22.3124 3.41004 21.4109 3.61046C19.8333 3.95634 18.3214 4.55293 16.9327 5.37752V5.37752C16.9224 5.37641 16.912 5.37641 16.9017 5.37752L16.734 5.47689C16.5352 5.59801 16.3396 5.72534 16.1377 5.85577C16.1377 5.85577 16.1377 5.85577 16.1377 5.83714C16.1377 5.8185 16.1563 5.80298 16.1688 5.77813C16.1812 5.75329 16.1687 5.75018 16.1967 5.73155C16.2246 5.71291 16.2309 5.66944 16.2495 5.63217C16.2627 5.6147 16.2741 5.59597 16.2837 5.57627C16.383 5.40857 16.5259 5.17566 16.7091 4.90858L16.7836 4.79988C16.8685 4.67773 16.9586 4.55351 17.0538 4.42722L17.1625 4.28436L17.2805 4.1353C17.4017 3.98312 17.5321 3.82474 17.6687 3.67567C17.7091 3.6322 17.7526 3.58251 17.7961 3.53903L17.911 3.41481L17.9824 3.34338C18.0787 3.244 18.178 3.14773 18.2929 3.05146L18.4389 2.91792C18.5538 2.81544 18.6718 2.71606 18.796 2.60736L18.9265 2.50488L18.9606 2.48004L19.1314 2.35581L19.2805 2.25333L19.3457 2.20985L19.5134 2.10737L19.6904 2.00489L19.8519 1.91793L19.8892 1.8993L20.0538 1.81855C20.1159 1.7906 20.1749 1.76265 20.2401 1.73781C23.7929 0.250251 28.2245 1.52974 30.5878 0.0514956C30.6189 0.00801792 30.6189 0.0825513 30.6189 0.212984Z" fill="#00AB55"/>
<path opacity="0.1" d="M24.4041 7.99858C24.1712 8.05759 23.9352 8.10728 23.6929 8.14765L23.4755 8.18181L23.2364 8.21287L22.9942 8.2346C22.8327 8.24703 22.6681 8.25634 22.5004 8.26255H22.7426C23.3211 8.26536 23.8984 8.21127 24.4662 8.10107L24.4041 7.99858ZM19.0191 7.80914L18.6712 7.70977L18.5035 7.66318L18.4228 7.63834L18.3421 7.61349C18.457 7.74082 18.5626 7.87436 18.6526 8.0079L18.7427 8.12281L18.87 8.30293L18.929 8.39299C19.1177 8.66317 19.2869 8.94649 19.4352 9.2408C19.4569 9.28117 19.4756 9.32155 19.4942 9.36503C19.5033 9.37852 19.5106 9.39314 19.516 9.4085C19.5377 9.45198 19.5563 9.49546 19.575 9.54204C19.5936 9.58862 19.6153 9.62589 19.6309 9.66937C19.6464 9.71285 19.6681 9.75943 19.6837 9.80291C19.6992 9.84639 19.7271 9.9116 19.7458 9.9644C19.7644 10.0172 19.7892 10.0793 19.8079 10.1352C19.8451 10.2501 19.8824 10.3681 19.9166 10.4861C19.9507 10.6041 19.9756 10.7004 20.0004 10.8122L20.0377 10.9768C20.0687 11.1197 20.0936 11.2656 20.1153 11.4116C20.1153 11.4644 20.134 11.5203 20.1402 11.5762C20.1464 11.6321 20.1402 11.6942 20.1619 11.7563C20.1836 11.8184 20.1619 11.8246 20.1619 11.8619C20.1619 11.8992 20.1619 11.9519 20.1619 11.9985V12.1383C20.1619 12.188 20.1619 12.2377 20.1619 12.2873C20.1619 12.337 20.1619 12.4426 20.1619 12.5234C20.1619 12.6041 20.1619 12.6662 20.1619 12.7345C20.1619 12.8029 20.1619 12.9116 20.1619 12.9985C20.1619 13.0855 20.1619 13.1165 20.1619 13.1724C20.1619 13.2283 20.1433 13.3588 20.1309 13.4488C20.1184 13.5389 20.0998 13.6911 20.0781 13.8122C20.0781 13.8525 20.0781 13.8929 20.0563 13.9333C20.0156 14.1501 19.9637 14.3646 19.901 14.5761C19.901 14.6289 19.87 14.6817 19.8545 14.7345L19.7986 14.9084C19.7271 15.1196 19.6464 15.3246 19.5563 15.5295L19.5004 15.6538C19.5004 15.691 19.4632 15.7314 19.4445 15.7687L19.3793 15.9022C19.3607 15.9364 19.342 15.9736 19.3234 16.0047C19.3048 16.0357 19.2706 16.1072 19.2427 16.1569C19.2147 16.2065 19.2116 16.2128 19.193 16.2407C19.1743 16.2687 19.1402 16.337 19.1091 16.3836C19.0781 16.4301 19.0066 16.5482 18.9538 16.6289L18.8731 16.75C18.7986 16.8587 18.7209 16.9643 18.6402 17.0606C18.6122 17.1009 18.5812 17.1382 18.5532 17.1755L18.4414 17.3121L18.3265 17.4426L18.2085 17.573L18.0874 17.7003L17.9663 17.8245L17.839 17.9457C17.5838 18.1884 17.3108 18.4116 17.0222 18.6133L16.8793 18.7096C16.8328 18.7438 16.7831 18.7748 16.7334 18.8059C16.6837 18.8369 16.5439 18.9239 16.4477 18.9798L16.2924 19.0668C15.7588 19.3579 15.1914 19.5822 14.603 19.7345L14.3111 19.8028L14.0968 19.8463L13.926 19.8742H13.8235L13.6899 19.8928L13.3794 19.927H13.1962H13.0098H13.2614C14.6596 19.9146 16.0262 19.5092 17.2049 18.757C18.3837 18.0048 19.327 16.9362 19.9272 15.6732C20.5274 14.4103 20.7603 13.004 20.5991 11.615C20.438 10.2261 19.8894 8.91043 19.016 7.81846L19.0191 7.80914ZM13.2552 5.08558H13.0036H13.1744H13.3452C13.575 5.10732 13.8017 5.13216 14.0253 5.17253L14.1558 5.20359L14.2645 5.22533L14.4229 5.25949H14.4477L14.6154 5.29986L14.7924 5.34955L14.9663 5.40234L15.134 5.45514C15.2955 5.51104 15.4446 5.57004 15.6154 5.63837L15.6713 5.52967C15.684 5.52522 15.6964 5.52004 15.7085 5.51414C14.921 5.23319 14.0913 5.08827 13.2552 5.08558ZM0.758429 12.5389C0.756953 9.26715 2.03862 6.1253 4.32817 3.78814C6.61772 1.45098 9.73253 0.10492 13.0036 0.0390625H12.749C9.46915 0.0907708 6.34116 1.42997 4.04005 3.76764C1.73894 6.10532 0.449219 9.25402 0.449219 12.5342C0.449219 15.8145 1.73894 18.9632 4.04005 21.3008C6.34116 23.6385 9.46915 24.9777 12.749 25.0294H12.9912C9.72256 24.9611 6.61091 23.6144 4.32393 21.278C2.03696 18.9417 0.756904 15.802 0.758429 12.5327V12.5389Z" fill="black"/>
<path opacity="0.1" d="M1.51972 30.1114C4.83271 32.6109 8.86033 33.9814 13.0103 34.0213H12.7556C8.52043 34.033 4.39771 32.6588 1.01662 30.1083C0.575557 29.7771 0.255074 29.3106 0.104161 28.7801C-0.0467532 28.2496 -0.0197952 27.6842 0.180913 27.1705C0.381622 26.6568 0.745037 26.2229 1.21561 25.9352C1.68619 25.6475 2.23803 25.5218 2.78678 25.5773C2.28112 25.6281 1.80255 25.8303 1.41366 26.1574C1.02478 26.4846 0.743675 26.9215 0.60712 27.411C0.470565 27.9006 0.484914 28.4199 0.64829 28.9011C0.811667 29.3824 1.11647 29.8031 1.52282 30.1083L1.51972 30.1114Z" fill="black"/>
<path opacity="0.1" d="M23.2236 25.5762C22.7657 25.6209 22.3292 25.7918 21.9627 26.07C19.4578 27.9588 16.4044 28.9773 13.2672 28.9706H13.0156C16.0699 28.9286 19.0311 27.9136 21.4689 26.0731C21.9705 25.6927 22.597 25.5153 23.2236 25.5762V25.5762Z" fill="black"/>
<path opacity="0.1" d="M1.63837 36.9018C1.63886 36.1426 1.92451 35.4114 2.43872 34.8529C2.95294 34.2943 3.65819 33.9494 4.41473 33.8863C4.37746 33.8863 4.3402 33.8863 4.29982 33.8863H4.16318C3.75718 33.8733 3.35272 33.9421 2.97381 34.0885C2.5949 34.2348 2.24929 34.4559 1.9575 34.7385C1.66571 35.0211 1.4337 35.3595 1.27525 35.7335C1.1168 36.1075 1.03516 36.5096 1.03516 36.9158C1.03516 37.322 1.1168 37.7241 1.27525 38.0981C1.4337 38.4721 1.66571 38.8105 1.9575 39.0931C2.24929 39.3757 2.5949 39.5967 2.97381 39.7431C3.35272 39.8895 3.75718 39.9583 4.16318 39.9453H4.29982H4.41473C3.65336 39.8818 2.94411 39.5329 2.42921 38.9684C1.91431 38.404 1.63181 37.6658 1.63837 36.9018V36.9018ZM4.66628 35.1348C4.58208 35.1347 4.498 35.1409 4.41473 35.1534H4.49237H4.56069C4.79556 35.2127 5.01622 35.3183 5.20975 35.4639L5.25323 35.4981C5.27807 35.5198 5.30292 35.5385 5.32776 35.5633C5.34774 35.5783 5.36644 35.5949 5.38366 35.613L5.43956 35.6689C5.45876 35.6871 5.47642 35.7068 5.49236 35.7279C5.51056 35.7461 5.52719 35.7659 5.54204 35.7869L5.58863 35.849C5.65075 35.9317 5.70483 36.0201 5.75012 36.113C5.76177 36.1362 5.77213 36.1601 5.78117 36.1844C5.82541 36.2843 5.85973 36.3884 5.88366 36.495C5.88542 36.5198 5.88542 36.5447 5.88366 36.5695V36.6285V36.6937C5.88366 36.759 5.88366 36.8242 5.88366 36.8925C5.88366 36.9608 5.88366 37.0291 5.88366 37.0944V37.1596V37.2186C5.88515 37.2434 5.88515 37.2683 5.88366 37.2931C5.85973 37.3997 5.82541 37.5037 5.78117 37.6037C5.77213 37.628 5.76177 37.6519 5.75012 37.6751C5.70411 37.7676 5.65007 37.856 5.58863 37.9391L5.54204 38.0012C5.52719 38.0222 5.51056 38.042 5.49236 38.0602L5.45509 38.144C5.43804 38.1642 5.41934 38.1829 5.39919 38.1999C5.38197 38.218 5.36327 38.2346 5.34329 38.2496L5.26876 38.3117L5.22528 38.3459C5.03242 38.4927 4.81152 38.5984 4.57622 38.6564H4.5079H4.43026C4.51375 38.6664 4.59773 38.6715 4.68181 38.672C4.91386 38.672 5.14364 38.6263 5.35803 38.5375C5.57242 38.4487 5.76722 38.3185 5.93131 38.1544C6.09539 37.9903 6.22555 37.7955 6.31436 37.5811C6.40316 37.3668 6.44887 37.137 6.44887 36.9049C6.44887 36.6729 6.40316 36.4431 6.31436 36.2287C6.22555 36.0143 6.09539 35.8195 5.93131 35.6554C5.76722 35.4913 5.57242 35.3612 5.35803 35.2724C5.14364 35.1836 4.91386 35.1379 4.68181 35.1379L4.66628 35.1348Z" fill="#FCFCFC"/>
<path opacity="0.1" d="M19.0528 36.9042C19.054 36.1452 19.3399 35.4143 19.8539 34.856C20.368 34.2976 21.0728 33.9524 21.8291 33.8887H21.7173H21.5776C20.7909 33.9139 20.0449 34.2441 19.4973 34.8095C18.9497 35.3748 18.6436 36.1311 18.6436 36.9181C18.6436 37.7052 18.9497 38.4614 19.4973 39.0268C20.0449 39.5922 20.7909 39.9224 21.5776 39.9476H21.7173H21.8291C21.068 39.8835 20.3592 39.5343 19.8444 38.97C19.3297 38.4058 19.0469 37.6679 19.0528 36.9042V36.9042ZM22.0838 35.1371C21.9985 35.137 21.9134 35.1432 21.8291 35.1557H21.9099H21.9782C22.2123 35.2145 22.4321 35.3201 22.6241 35.4663L22.6707 35.5005L22.7453 35.5657L22.8012 35.6154L22.8571 35.6713L22.9098 35.7303L22.9564 35.7893C22.9747 35.8086 22.9913 35.8294 23.0061 35.8514C23.0672 35.9341 23.1203 36.0225 23.1645 36.1154C23.1771 36.1385 23.1885 36.1624 23.1987 36.1868C23.2429 36.2867 23.2772 36.3907 23.3011 36.4973C23.3011 36.5222 23.3011 36.5439 23.3011 36.5719C23.3026 36.5915 23.3026 36.6112 23.3011 36.6309C23.3027 36.6526 23.3027 36.6744 23.3011 36.6961C23.3059 36.7623 23.3059 36.8287 23.3011 36.8948C23.3059 36.9621 23.3059 37.0295 23.3011 37.0967C23.3027 37.1184 23.3027 37.1402 23.3011 37.1619C23.3026 37.1816 23.3026 37.2013 23.3011 37.2209C23.3011 37.2458 23.3011 37.2706 23.3011 37.2955C23.2772 37.4021 23.2429 37.5061 23.1987 37.606C23.1885 37.6304 23.1771 37.6543 23.1645 37.6774C23.1196 37.7699 23.0666 37.8583 23.0061 37.9414C22.9913 37.9634 22.9747 37.9842 22.9564 38.0035L22.9098 38.0625L22.8446 38.1464L22.7887 38.2023L22.7328 38.252L22.6583 38.3141L22.6117 38.3482C22.4203 38.4955 22.2003 38.6013 21.9658 38.6588H21.8974H21.8167C21.9012 38.6687 21.9862 38.6739 22.0713 38.6743C22.54 38.6743 22.9895 38.4882 23.3208 38.1568C23.6522 37.8254 23.8384 37.3759 23.8384 36.9073C23.8384 36.4386 23.6522 35.9892 23.3208 35.6578C22.9895 35.3264 22.54 35.1402 22.0713 35.1402L22.0838 35.1371Z" fill="white"/>
<path opacity="0.1" d="M17.9058 6.77775C19.3443 7.39499 20.8824 7.74743 22.4461 7.81811H21.9151H21.6728C21.5207 7.81811 21.3623 7.79947 21.2225 7.78394H21.089L20.9058 7.74047H20.8312C20.617 7.71252 20.4089 7.67836 20.2101 7.64109L19.8996 7.57587L19.7163 7.5355L19.4306 7.45786L19.2101 7.39886L18.9959 7.33985L18.8095 7.28085L18.5331 7.19389L18.2567 7.11936L18.2164 7.10383L18.0425 7.04172C17.9586 7.01377 17.8779 6.97961 17.8002 6.95166L17.6946 6.90818L17.5673 6.84917L17.4493 6.8088C17.4328 6.80533 17.417 6.79902 17.4027 6.79017V6.79017L17.3251 6.75911L17.2133 6.70942L17.1636 6.68458L17.1139 6.66284L17.0269 6.62247L16.9866 6.60384L16.8872 6.55725L16.8499 6.53862L16.7754 6.49825L16.8934 6.41129L16.9431 6.37713L16.9866 6.34607L17.2195 6.18769L17.294 6.138C17.4493 6.03552 17.6387 5.91751 17.8592 5.78708L17.9897 5.70944L18.058 5.66907L18.1698 5.60695C18.4803 5.42373 18.8592 5.22497 19.2691 5.02622L19.4555 4.93616L19.8437 4.75914L20.0455 4.67218L20.2536 4.58212C20.5331 4.46722 20.825 4.35231 21.1294 4.24362L21.3561 4.16598L21.6045 4.07592L21.8312 4.00449C22.0579 3.93617 22.2846 3.87095 22.5176 3.81195C22.5828 3.79642 22.6449 3.77778 22.7101 3.76536C23.0207 3.68772 23.3498 3.6194 23.6821 3.5635L23.8685 3.53245L24.1014 3.49829C24.1987 3.48172 24.295 3.4693 24.3902 3.46102L24.5455 3.44239H24.6852L24.9057 3.42375L25.1262 3.40822C25.2753 3.40822 25.4368 3.40822 25.5796 3.38959H25.5548H25.5237C25.4523 3.38959 25.3063 3.35543 25.0983 3.3368H25.0113H24.9057L24.6821 3.32127H24.4213H24.6511C25.1305 3.31389 25.6096 3.34922 26.0827 3.42686C24.8117 3.46132 23.5515 3.67031 22.3374 4.04797L21.9461 4.17219C20.3318 4.71378 18.8014 5.47898 17.3996 6.44545L17.2816 6.53241C17.2816 6.53241 17.5083 6.61005 17.9058 6.77775Z" fill="black"/>
<path opacity="0.1" d="M30.6127 0.208072V0.260866C28.1624 1.31986 24.091 0.298133 20.765 1.68631C20.5142 1.79201 20.2714 1.91552 20.0383 2.05588L19.7805 2.22047C18.6294 3.05064 17.6603 4.10748 16.9327 5.32602V5.32602C16.9224 5.32492 16.912 5.32492 16.9017 5.32602L16.734 5.4254C16.5352 5.54651 16.3396 5.67384 16.1377 5.80427C16.1377 5.80427 16.1377 5.80428 16.1377 5.78564C16.1377 5.76701 16.1563 5.75148 16.1688 5.72664C16.1812 5.70179 16.1688 5.69869 16.1967 5.68005C16.2247 5.66142 16.2309 5.61794 16.2495 5.58068C16.2627 5.5632 16.2741 5.54448 16.2837 5.52478C16.383 5.35708 16.5259 5.12416 16.7091 4.85708L16.7836 4.74839C16.8685 4.62624 16.9586 4.50201 17.0538 4.37572L17.1625 4.23287L17.2805 4.0838C17.4017 3.93163 17.5321 3.77325 17.6687 3.62418C17.7091 3.5807 17.7526 3.53101 17.7961 3.48753L17.911 3.36331L17.9824 3.29188C18.0787 3.19251 18.178 3.09623 18.2929 2.99996L18.4389 2.86642C18.5538 2.76394 18.6718 2.66456 18.796 2.55587L18.9265 2.45339L18.9606 2.42854L19.1314 2.30432L19.2805 2.20184L19.3457 2.15836L19.5134 2.05588L19.6904 1.95339L19.8519 1.86644L19.8892 1.8478L20.0538 1.76706C20.1159 1.73911 20.1749 1.71116 20.2401 1.68631C23.7929 0.198755 28.2245 1.47824 30.5878 0C30.6127 0.00310555 30.6127 0.0776388 30.6127 0.208072Z" fill="black"/>
<path d="M50.5933 22.447L51.2672 18.6738H46.6834C46.4896 18.6769 46.2972 18.6404 46.118 18.5666C45.9387 18.4928 45.7764 18.3833 45.6409 18.2446C45.5055 18.106 45.3997 17.9411 45.3302 17.7602C45.2606 17.5793 45.2286 17.3861 45.2362 17.1924C45.2362 16.1459 46.2455 15.239 47.2921 15.239H53.8138C54.0392 15.2329 54.2632 15.2773 54.4693 15.3689C54.6754 15.4605 54.8584 15.5971 55.0049 15.7686C55.1513 15.9401 55.2576 16.1422 55.3159 16.3601C55.3742 16.5779 55.383 16.8061 55.3417 17.0278L54.41 22.416C54.3136 23.0886 54.0071 23.7136 53.5343 24.2016C51.5126 26.3755 47.7052 27.8755 44.0996 27.8755C38.7084 27.8755 35.3047 24.8103 35.3047 19.1489C35.3047 10.0186 40.0562 4.25781 48.2424 4.25781C52.32 4.25781 54.7113 6.12114 55.7237 8.13354C55.8537 8.39523 55.9227 8.68296 55.9255 8.97514C55.9264 9.21436 55.8798 9.45137 55.7887 9.67254C55.6975 9.8937 55.5635 10.0946 55.3943 10.2638C55.2252 10.433 55.0243 10.567 54.8031 10.6581C54.5819 10.7493 54.3449 10.7958 54.1057 10.795C53.834 10.7974 53.5653 10.7379 53.32 10.6212C53.0746 10.5044 52.8591 10.3334 52.6896 10.1211C51.5778 8.60247 50.0964 7.76087 47.6368 7.76087C41.4257 7.76087 39.3823 13.2204 39.3823 18.8135C39.3823 22.5402 41.2456 24.3725 44.7052 24.3725C46.9878 24.3693 48.9318 23.7948 50.5933 22.447Z" fill="#252525"/>
<path d="M64.6108 5.21942L61.3593 23.5422C61.3412 23.6332 61.3437 23.7272 61.3667 23.8172C61.3897 23.9071 61.4326 23.9908 61.4922 24.062C61.5518 24.1332 61.6266 24.1902 61.7111 24.2286C61.7956 24.2671 61.8876 24.2862 61.9804 24.2844C62.1631 24.274 62.3459 24.3029 62.5164 24.3692C62.6869 24.4354 62.8413 24.5375 62.969 24.6685C63.0968 24.7995 63.1949 24.9563 63.2569 25.1284C63.3189 25.3006 63.3432 25.484 63.3283 25.6664C63.3195 25.9391 63.2566 26.2074 63.1431 26.4556C63.0296 26.7037 62.8678 26.9268 62.6672 27.1118C62.4666 27.2968 62.2311 27.44 61.9746 27.5331C61.7181 27.6262 61.4456 27.6672 61.173 27.6539C58.9153 27.6539 57.7041 26.5421 57.7041 24.4179C57.7063 24.0565 57.7396 23.696 57.8035 23.3403L60.9742 5.21942C61.0664 4.71925 61.3272 4.26577 61.7131 3.9346C62.0991 3.60343 62.587 3.41459 63.0953 3.39956C63.324 3.39068 63.5517 3.43445 63.7608 3.52752C63.9699 3.62058 64.1548 3.76044 64.3012 3.9363C64.4477 4.11217 64.5518 4.31933 64.6054 4.54181C64.6591 4.76428 64.661 4.99612 64.6108 5.21942V5.21942Z" fill="#252525"/>
<path d="M80.713 17.4949C80.713 22.6843 78.0857 27.8395 71.6821 27.8395C67.8778 27.8395 65.5176 25.9514 65.5176 21.9763C65.5176 16.79 68.1449 11.6348 74.5454 11.6348C78.3528 11.6348 80.713 13.5198 80.713 17.4949ZM77.005 18.0353C77.005 15.8614 75.9957 14.7341 74.0082 14.7341C70.5051 14.7341 69.2256 18.439 69.2256 21.439C69.2256 23.6129 70.2349 24.7402 72.2225 24.7402C75.7255 24.7402 77.005 21.0353 77.005 18.0353Z" fill="#252525"/>
<path d="M97.4209 17.4949C97.4209 22.6843 94.7936 27.8395 88.393 27.8395C84.5856 27.8395 82.2285 25.9514 82.2285 21.9763C82.2285 16.79 84.8558 11.6348 91.2564 11.6348C95.0638 11.6348 97.4209 13.5198 97.4209 17.4949ZM93.716 18.0353C93.716 15.8614 92.7066 14.7341 90.7191 14.7341C87.2129 14.7341 85.9334 18.439 85.9334 21.439C85.9334 23.6129 86.9458 24.7402 88.9334 24.7402C92.4365 24.7402 93.716 21.0353 93.716 18.0353Z" fill="#252525"/>
<path d="M103.925 16.1974C103.925 18.657 111.068 18.185 111.068 22.4644C111.068 25.7656 108.54 27.7439 103.993 27.7439C101.093 27.7439 99.1051 26.1911 98.4343 25.1507C98.2789 24.9102 98.1969 24.6296 98.1983 24.3433C98.1979 24.0273 98.2901 23.7182 98.4634 23.454C98.6368 23.1899 98.8836 22.9822 99.1736 22.8567C99.4635 22.7312 99.7839 22.6934 100.095 22.7478C100.406 22.8023 100.695 22.9467 100.925 23.1632C101.92 24.0627 103.223 24.5452 104.565 24.511C106.214 24.511 107.329 23.8899 107.329 22.9955C107.329 20.6353 100.152 21.2408 100.152 16.626C100.152 13.1229 103.049 11.6074 106.484 11.6074C108.878 11.6074 110.999 12.685 111.742 13.8652C111.891 14.1105 111.972 14.3912 111.977 14.6784C111.982 14.9655 111.911 15.2489 111.77 15.4993C111.63 15.7497 111.425 15.9582 111.177 16.1033C110.929 16.2483 110.647 16.3248 110.36 16.3248C109.933 16.3104 109.526 16.1428 109.214 15.8527C108.351 15.1431 107.265 14.7613 106.148 14.7751C104.767 14.7844 103.925 15.2875 103.925 16.1974Z" fill="#252525"/>
<path d="M123.43 23.5259C123.743 23.2947 124.119 23.1657 124.508 23.1564C124.928 23.1564 125.331 23.3232 125.628 23.6203C125.925 23.9173 126.091 24.3201 126.091 24.7402C126.097 24.9979 126.038 25.2529 125.921 25.4822C125.803 25.7116 125.63 25.908 125.418 26.0538C124.744 26.5942 122.855 27.8395 119.517 27.8395C115.713 27.8395 113.284 25.852 113.284 21.5725C113.284 15.8117 116.756 11.6348 122.079 11.6348C125.582 11.6348 127.638 13.5198 127.638 15.7776C127.638 18.203 126.396 21.0353 116.89 21.0353C116.825 21.3417 116.792 21.6538 116.79 21.9669C116.79 23.8551 118.104 24.5632 119.955 24.5632C121.188 24.554 122.393 24.1942 123.43 23.5259V23.5259ZM117.331 18.3055C123.564 18.3055 124.036 16.6875 124.036 15.9794C124.036 15.4422 123.564 14.6999 121.88 14.6999C119.824 14.6999 118.141 15.8459 117.331 18.3055Z" fill="#252525"/>
<path d="M134.482 13.9324C134.901 13.2602 135.481 12.7025 136.168 12.3091C136.856 11.9156 137.631 11.6987 138.423 11.6778C138.622 11.6628 138.822 11.6907 139.01 11.7595C139.198 11.8283 139.369 11.9365 139.512 12.0767C139.654 12.217 139.765 12.3862 139.837 12.5728C139.909 12.7595 139.94 12.9594 139.929 13.1591C139.902 13.6798 139.679 14.1709 139.304 14.5335C138.93 14.896 138.431 15.1029 137.91 15.1125C135.584 15.1125 134 16.5969 133.597 18.8392L132.354 25.8484C132.262 26.3483 132.001 26.8015 131.615 27.1325C131.229 27.4636 130.741 27.6526 130.233 27.6682C129.156 27.6682 128.516 26.926 128.718 25.8484L130.873 13.6529C130.963 13.1455 131.228 12.6857 131.621 12.3532C132.015 12.0208 132.513 11.8367 133.028 11.833C134.041 11.833 134.646 12.6405 134.513 13.6529L134.482 13.9324Z" fill="#252525"/>
<path d="M37.5591 35.9628C37.5429 36.008 37.5129 36.047 37.4734 36.0743C37.4338 36.1016 37.3867 36.1158 37.3386 36.115C37.2975 36.116 37.2575 36.1016 37.2264 36.0746C37.1954 36.0476 37.1756 36.0099 37.1709 35.969L36.7827 32.3945C36.7808 32.3697 36.7808 32.3448 36.7827 32.32C36.785 32.271 36.8052 32.2246 36.8395 32.1897C36.8739 32.1547 36.9199 32.1337 36.9688 32.1306C37.0177 32.1275 37.066 32.1426 37.1045 32.173C37.1429 32.2034 37.1688 32.2469 37.1771 32.2951L37.4877 35.2609L38.8448 32.2672C38.8602 32.2244 38.8885 32.1874 38.9257 32.1612C38.963 32.1351 39.0074 32.1211 39.0529 32.1212C39.0959 32.1195 39.1379 32.1343 39.1703 32.1626C39.2026 32.1909 39.2229 32.2306 39.2268 32.2734L39.5374 35.2609L40.91 32.2486C40.9276 32.2067 40.959 32.172 40.999 32.1505C41.039 32.1289 41.0852 32.1217 41.1299 32.13C41.1745 32.1384 41.215 32.1618 41.2445 32.1964C41.274 32.2309 41.2908 32.2746 41.292 32.32C41.2906 32.3531 41.2832 32.3857 41.2703 32.4163L39.6181 35.9814C39.6035 36.0223 39.5771 36.058 39.5423 36.084C39.5075 36.1099 39.4658 36.125 39.4225 36.1274C39.4004 36.1305 39.378 36.1288 39.3566 36.1227C39.3353 36.1165 39.3154 36.1059 39.2984 36.0915C39.2814 36.0772 39.2677 36.0594 39.258 36.0393C39.2483 36.0193 39.243 35.9975 39.2423 35.9752L38.9318 33.0281L37.5591 35.9628Z" fill="#252525"/>
<path d="M45.2375 33.3496C45.8183 33.3496 46.0916 33.6446 46.0916 33.9707C46.0916 34.5918 45.4891 34.9024 44.104 34.9024C44.091 34.9615 44.0847 35.022 44.0854 35.0825C44.0854 35.6105 44.3369 35.7781 44.7997 35.7781C45.0548 35.7735 45.3017 35.6875 45.5046 35.5328C45.5364 35.5073 45.5757 35.4931 45.6164 35.4924C45.6383 35.492 45.66 35.496 45.6804 35.5041C45.7007 35.5122 45.7192 35.5242 45.7348 35.5395C45.7504 35.5549 45.7628 35.5731 45.7713 35.5933C45.7798 35.6135 45.7841 35.6352 45.7841 35.657C45.7825 35.687 45.7737 35.7161 45.7586 35.742C45.7435 35.768 45.7224 35.7899 45.6972 35.8061C45.4214 36.0215 45.0779 36.1316 44.7282 36.1167C44.1071 36.1167 43.7158 35.8061 43.7158 35.126C43.7158 34.0856 44.2935 33.3496 45.2375 33.3496ZM45.7189 34.0204C45.7189 33.8527 45.5698 33.685 45.1816 33.685C44.9254 33.6891 44.6794 33.7856 44.4887 33.9568C44.2981 34.128 44.1758 34.3624 44.1444 34.6167C45.2096 34.6167 45.7189 34.39 45.7189 34.0204V34.0204Z" fill="#252525"/>
<path d="M54.2707 36.1337C54.1424 36.1412 54.0139 36.1206 53.8943 36.0734C53.7747 36.0263 53.6668 35.9536 53.5781 35.8605C53.4895 35.7674 53.4222 35.6561 53.3809 35.5343C53.3396 35.4125 53.3253 35.2832 53.3391 35.1554C53.3391 34.0995 53.9757 33.348 54.8918 33.348C55.1531 33.3416 55.4079 33.4298 55.6092 33.5964V33.5654C55.6161 33.5138 55.6418 33.4666 55.6813 33.4328C55.7209 33.3989 55.7715 33.3809 55.8235 33.3821C55.8468 33.3805 55.8702 33.3844 55.8917 33.3935C55.9133 33.4026 55.9324 33.4166 55.9475 33.4345C55.9626 33.4523 55.9733 33.4735 55.9787 33.4962C55.9842 33.5189 55.9842 33.5426 55.9788 33.5654L55.5626 35.9194C55.554 35.9704 55.528 36.0169 55.4889 36.0509C55.4498 36.0849 55.4001 36.1043 55.3484 36.1057C55.325 36.1069 55.3016 36.1027 55.2802 36.0932C55.2587 36.0837 55.2398 36.0693 55.225 36.0511C55.2102 36.033 55.1998 36.0116 55.1948 35.9887C55.1898 35.9658 55.1903 35.9421 55.1962 35.9194L55.2676 35.5467C55.1741 35.729 55.0308 35.8809 54.8543 35.9848C54.6778 36.0887 54.4754 36.1403 54.2707 36.1337V36.1337ZM54.3266 35.7983C54.9633 35.7983 55.3049 35.202 55.4105 34.5995L55.5192 33.9442C55.4298 33.8547 55.3231 33.7843 55.2057 33.7373C55.0882 33.6903 54.9624 33.6677 54.8359 33.671C54.1993 33.671 53.6962 34.2517 53.6962 35.0964C53.6962 35.4784 53.8639 35.7983 54.3266 35.7983Z" fill="#252525"/>
<path d="M59.8069 33.8333C59.9024 33.6866 60.0338 33.5667 60.1888 33.4851C60.3437 33.4036 60.517 33.3631 60.692 33.3675C60.7124 33.3679 60.7325 33.3723 60.7512 33.3805C60.7699 33.3887 60.7868 33.4005 60.8009 33.4152C60.815 33.4299 60.8261 33.4472 60.8335 33.4662C60.841 33.4852 60.8446 33.5055 60.8442 33.5259C60.8403 33.5803 60.8161 33.6312 60.7764 33.6686C60.7367 33.706 60.6844 33.7271 60.6299 33.7278C60.3849 33.7288 60.1494 33.8226 59.9708 33.9902C59.7921 34.1579 59.6837 34.387 59.6672 34.6315L59.4374 35.9296C59.4282 35.9804 59.402 36.0266 59.363 36.0605C59.324 36.0944 59.2747 36.1139 59.2231 36.1159C59.1995 36.1169 59.1761 36.1125 59.1545 36.103C59.1329 36.0935 59.1138 36.0793 59.0985 36.0613C59.0832 36.0434 59.0723 36.0222 59.0664 35.9994C59.0605 35.9765 59.06 35.9527 59.0647 35.9296L59.4839 33.5756C59.4914 33.5248 59.5168 33.4784 59.5555 33.4448C59.5943 33.4112 59.6438 33.3926 59.6951 33.3924C59.7185 33.3909 59.7419 33.3949 59.7635 33.4039C59.7852 33.413 59.8044 33.427 59.8197 33.4447C59.835 33.4625 59.8461 33.4835 59.8519 33.5062C59.8578 33.5289 59.8583 33.5526 59.8535 33.5756L59.8069 33.8333Z" fill="#252525"/>
<path d="M65.1067 33.3496C65.6874 33.3496 65.9607 33.6446 65.9607 33.9707C65.9607 34.5918 65.3582 34.9024 63.9732 34.9024C63.9601 34.9615 63.9539 35.022 63.9545 35.0825C63.9545 35.6105 64.203 35.7781 64.6688 35.7781C64.9239 35.7735 65.1709 35.6875 65.3738 35.5328C65.4055 35.5073 65.4448 35.4931 65.4856 35.4924C65.5074 35.492 65.5292 35.496 65.5495 35.5041C65.5698 35.5122 65.5883 35.5242 65.604 35.5395C65.6196 35.5549 65.632 35.5731 65.6404 35.5933C65.6489 35.6135 65.6533 35.6352 65.6533 35.657C65.6516 35.687 65.6429 35.7161 65.6277 35.742C65.6126 35.768 65.5916 35.7899 65.5663 35.8061C65.2905 36.0215 64.947 36.1316 64.5974 36.1167C63.9607 36.1167 63.585 35.8061 63.585 35.126C63.585 34.0856 64.1533 33.3496 65.1067 33.3496ZM65.588 34.0204C65.588 33.8527 65.439 33.685 65.0508 33.685C64.7946 33.6891 64.5485 33.7856 64.3579 33.9568C64.1673 34.128 64.045 34.3624 64.0135 34.6167C65.0849 34.6167 65.588 34.39 65.588 34.0204Z" fill="#252525"/>
<path d="M73.1914 35.1446C73.1914 34.2409 73.62 33.3496 74.6883 33.3496C75.3094 33.3496 75.6883 33.6602 75.6883 34.3403C75.6883 35.244 75.2597 36.1353 74.1945 36.1353C73.5641 36.1353 73.1914 35.8154 73.1914 35.1446ZM75.3125 34.3838C75.3248 34.2904 75.3158 34.1955 75.286 34.1062C75.2563 34.0169 75.2066 33.9355 75.1408 33.8682C75.075 33.8009 74.9948 33.7494 74.9061 33.7177C74.8175 33.686 74.7229 33.6748 74.6293 33.685C73.8653 33.685 73.5703 34.3806 73.5703 35.098C73.5574 35.1916 73.5661 35.2869 73.5956 35.3766C73.6251 35.4663 73.6747 35.5481 73.7406 35.6157C73.8064 35.6834 73.8869 35.7352 73.9758 35.7671C74.0646 35.799 74.1596 35.8102 74.2535 35.7999C75.0237 35.7999 75.3125 35.1042 75.3125 34.3838V34.3838Z" fill="#252525"/>
<path d="M81.3199 34.0645C81.3181 34.1686 81.3088 34.2724 81.2919 34.3751L81.0186 35.9279C81.01 35.9789 80.984 36.0254 80.9449 36.0594C80.9058 36.0934 80.8561 36.1128 80.8044 36.1142C80.7809 36.1153 80.7575 36.1109 80.736 36.1015C80.7145 36.092 80.6955 36.0777 80.6804 36.0596C80.6654 36.0416 80.6547 36.0203 80.6493 35.9974C80.6439 35.9746 80.6438 35.9508 80.6491 35.9279L80.91 34.4558C80.9261 34.3624 80.9354 34.268 80.9379 34.1732C80.9379 33.8627 80.7702 33.6857 80.3479 33.6857C80.2348 33.6789 80.1216 33.6946 80.0147 33.7317C79.9077 33.7689 79.8092 33.8267 79.7246 33.902C79.6401 33.9773 79.5712 34.0686 79.5221 34.1705C79.4729 34.2725 79.4443 34.3832 79.4379 34.4962L79.1833 35.9279C79.1747 35.9789 79.1486 36.0254 79.1095 36.0594C79.0704 36.0934 79.0208 36.1128 78.969 36.1142C78.9453 36.1158 78.9215 36.1118 78.8996 36.1026C78.8777 36.0933 78.8583 36.079 78.8429 36.0609C78.8275 36.0428 78.8165 36.0213 78.8109 35.9982C78.8053 35.9751 78.8052 35.951 78.8106 35.9279L79.2299 33.5739C79.2374 33.5226 79.2632 33.4757 79.3026 33.442C79.342 33.4084 79.3923 33.3901 79.4441 33.3906C79.4673 33.3897 79.4903 33.394 79.5116 33.4033C79.5328 33.4126 79.5516 33.4266 79.5666 33.4443C79.5815 33.462 79.5923 33.4828 79.598 33.5053C79.6037 33.5277 79.6042 33.5512 79.5994 33.5739L79.5653 33.7602C79.6607 33.6288 79.7873 33.5231 79.9336 33.4526C80.0799 33.3822 80.2415 33.3491 80.4038 33.3565C81.0777 33.3534 81.3199 33.6701 81.3199 34.0645Z" fill="#252525"/>
<path d="M85.5342 32.1121L84.9628 35.4195C84.9581 35.4639 84.9581 35.5087 84.9628 35.5531C84.9587 35.5795 84.9609 35.6066 84.9691 35.6321C84.9772 35.6576 84.9912 35.6809 85.0098 35.7001C85.0284 35.7194 85.0513 35.7341 85.0765 35.743C85.1017 35.752 85.1287 35.755 85.1553 35.7518C85.1747 35.7513 85.194 35.7549 85.212 35.7623C85.23 35.7697 85.2462 35.7808 85.2596 35.7948C85.2731 35.8089 85.2834 35.8255 85.2901 35.8438C85.2967 35.8621 85.2995 35.8815 85.2982 35.9009C85.2965 35.9547 85.2738 36.0057 85.2349 36.0429C85.1959 36.0801 85.1439 36.1005 85.0901 36.0996C85.0231 36.1096 84.9546 36.1041 84.8901 36.0834C84.8256 36.0626 84.7667 36.0273 84.7181 35.9802C84.6694 35.933 84.6323 35.8753 84.6095 35.8114C84.5868 35.7476 84.5791 35.6794 84.587 35.6121C84.5876 35.5475 84.5938 35.483 84.6056 35.4195L85.1895 32.1121C85.1981 32.061 85.2242 32.0145 85.2632 31.9806C85.3023 31.9466 85.352 31.9272 85.4038 31.9258C85.4251 31.9283 85.4457 31.9352 85.4641 31.9463C85.4826 31.9573 85.4985 31.9721 85.5108 31.9897C85.5231 32.0073 85.5316 32.0273 85.5356 32.0484C85.5396 32.0695 85.5391 32.0912 85.5342 32.1121Z" fill="#252525"/>
<path d="M89.2378 33.5565L89.0173 34.7987C89.0012 34.869 88.9928 34.9409 88.9924 35.013C88.9924 35.2894 89.1259 35.4975 89.5949 35.4975C89.7974 35.5115 89.9976 35.4466 90.1533 35.3163C90.309 35.186 90.4083 35.0006 90.4303 34.7987L90.6508 33.5565C90.6602 33.505 90.6875 33.4584 90.7278 33.4249C90.7681 33.3914 90.8189 33.3731 90.8713 33.3733C90.8943 33.372 90.9173 33.3762 90.9383 33.3855C90.9594 33.3948 90.978 33.409 90.9925 33.4269C91.007 33.4448 91.0171 33.4658 91.022 33.4884C91.0268 33.5109 91.0263 33.5342 91.0203 33.5565L90.57 36.1186C90.4365 36.8701 89.9955 37.2148 89.1912 37.2148C88.7222 37.2148 88.4365 36.9819 88.4365 36.6683C88.4365 36.2645 88.7781 36.0471 89.452 35.8577C88.8309 35.8235 88.6166 35.5099 88.6166 35.1155C88.6181 35.0113 88.6284 34.9074 88.6477 34.8049L88.8651 33.5627C88.8738 33.5119 88.9 33.4658 88.9391 33.4324C88.9783 33.3989 89.0279 33.3802 89.0794 33.3795C89.1021 33.3782 89.1249 33.3821 89.146 33.3909C89.167 33.3996 89.1859 33.413 89.2011 33.43C89.2163 33.447 89.2275 33.4671 89.2338 33.489C89.2402 33.5109 89.2415 33.534 89.2378 33.5565ZM89.2595 36.8887C89.3701 36.9025 89.4823 36.894 89.5896 36.8636C89.6968 36.8332 89.7968 36.7815 89.8837 36.7117C89.9706 36.6419 90.0426 36.5554 90.0954 36.4572C90.1482 36.359 90.1808 36.2513 90.1912 36.1403L90.3309 35.4509C89.9365 36.072 88.8185 36.0316 88.8185 36.6124C88.8154 36.8018 88.9955 36.895 89.2595 36.895V36.8887Z" fill="#252525"/>
<path d="M99.6939 33.4259C99.7129 33.425 99.7318 33.4281 99.7496 33.435C99.7673 33.4418 99.7834 33.4523 99.7968 33.4658C99.8103 33.4792 99.8208 33.4953 99.8276 33.5131C99.8345 33.5308 99.8376 33.5498 99.8367 33.5688C99.8367 33.5959 99.8313 33.6228 99.8208 33.6479C99.8103 33.673 99.795 33.6957 99.7756 33.7148C99.7562 33.7339 99.7333 33.7489 99.708 33.759C99.6828 33.7691 99.6558 33.7741 99.6287 33.7737H99.1038L98.6784 36.2054C98.6432 36.4997 98.4963 36.7692 98.2679 36.9583C98.0396 37.1473 97.7474 37.2413 97.4517 37.2209C97.4324 37.2213 97.4132 37.2178 97.3953 37.2106C97.3774 37.2035 97.3611 37.1927 97.3475 37.1791C97.3339 37.1654 97.3231 37.1492 97.3159 37.1313C97.3088 37.1134 97.3053 37.0942 97.3057 37.0749C97.3057 37.0483 97.311 37.0219 97.3214 36.9974C97.3318 36.9729 97.347 36.9507 97.3661 36.9321C97.3852 36.9136 97.4079 36.8991 97.4327 36.8895C97.4575 36.8799 97.484 36.8753 97.5107 36.8762C97.7075 36.8866 97.9007 36.8202 98.0496 36.6911C98.1984 36.5619 98.2914 36.38 98.3088 36.1836L98.7311 33.7737H98.5355C98.5162 33.7741 98.497 33.7707 98.4791 33.7635C98.4612 33.7563 98.445 33.7456 98.4313 33.7319C98.4177 33.7183 98.407 33.702 98.3998 33.6841C98.3926 33.6662 98.3891 33.6471 98.3895 33.6278C98.3911 33.5737 98.4138 33.5223 98.4526 33.4846C98.4915 33.4469 98.5435 33.4259 98.5976 33.4259H98.7964L98.8523 33.0843C98.8865 32.7992 99.0277 32.5376 99.2473 32.3526C99.467 32.1676 99.7487 32.0728 100.035 32.0874C100.055 32.0866 100.074 32.0896 100.092 32.0965C100.109 32.1033 100.126 32.1138 100.139 32.1271C100.153 32.1405 100.164 32.1566 100.171 32.1743C100.178 32.1921 100.182 32.2111 100.181 32.2303C100.181 32.2576 100.175 32.2846 100.164 32.3097C100.154 32.3347 100.138 32.3575 100.118 32.3765C100.099 32.3955 100.076 32.4105 100.05 32.4206C100.025 32.4307 99.9976 32.4356 99.9703 32.4352C99.7857 32.4241 99.6042 32.4859 99.4648 32.6073C99.3254 32.7287 99.2392 32.9 99.2249 33.0843L99.1659 33.4259H99.6939Z" fill="#252525"/>
<path d="M102.664 35.1446C102.664 34.2409 103.093 33.3496 104.158 33.3496C104.779 33.3496 105.161 33.6602 105.161 34.3403C105.161 35.244 104.732 36.1353 103.667 36.1353C103.037 36.1353 102.664 35.8154 102.664 35.1446ZM104.785 34.3838C104.797 34.2904 104.788 34.1955 104.759 34.1062C104.729 34.0169 104.679 33.9355 104.613 33.8682C104.548 33.8009 104.467 33.7494 104.379 33.7177C104.29 33.686 104.196 33.6748 104.102 33.685C103.338 33.685 103.04 34.3806 103.04 35.098C103.027 35.1919 103.036 35.2874 103.065 35.3774C103.095 35.4674 103.145 35.5494 103.211 35.6171C103.277 35.6848 103.358 35.7365 103.447 35.7682C103.537 35.7999 103.632 35.8107 103.726 35.7999C104.49 35.7999 104.785 35.1042 104.785 34.3838V34.3838Z" fill="#252525"/>
<path d="M109.023 33.8334C109.119 33.6864 109.25 33.5663 109.405 33.4848C109.56 33.4032 109.733 33.3628 109.909 33.3676C109.929 33.368 109.949 33.3724 109.968 33.3806C109.986 33.3887 110.003 33.4005 110.017 33.4152C110.032 33.4299 110.043 33.4473 110.05 33.4663C110.058 33.4853 110.061 33.5055 110.061 33.5259C110.057 33.5803 110.033 33.6313 109.993 33.6687C109.953 33.7061 109.901 33.7272 109.846 33.7278C109.601 33.7288 109.366 33.8226 109.187 33.9903C109.009 34.158 108.9 34.3871 108.884 34.6315L108.651 35.9296C108.642 35.9807 108.616 36.0272 108.577 36.0612C108.538 36.0952 108.488 36.1145 108.437 36.116C108.413 36.1171 108.39 36.1127 108.368 36.1032C108.347 36.0938 108.328 36.0794 108.313 36.0614C108.298 36.0433 108.287 36.022 108.281 35.9992C108.276 35.9763 108.276 35.9525 108.281 35.9296L108.697 33.5756C108.706 33.5249 108.732 33.4788 108.771 33.4453C108.811 33.4118 108.86 33.3931 108.912 33.3924C108.935 33.3909 108.959 33.3949 108.98 33.404C109.002 33.4131 109.021 33.427 109.036 33.4448C109.052 33.4625 109.063 33.4835 109.069 33.5062C109.074 33.5289 109.075 33.5527 109.07 33.5756L109.023 33.8334Z" fill="#252525"/>
<path d="M117.739 33.5564L117.518 34.7987C117.504 34.8693 117.497 34.941 117.496 35.0129C117.496 35.2893 117.63 35.4974 118.099 35.4974C118.301 35.5107 118.501 35.4455 118.656 35.3153C118.812 35.1852 118.911 35.0002 118.934 34.7987L119.152 33.5564C119.162 33.5052 119.189 33.4589 119.229 33.4256C119.269 33.3922 119.32 33.3737 119.372 33.3732C119.395 33.3721 119.418 33.3764 119.439 33.3857C119.46 33.395 119.479 33.4091 119.494 33.4269C119.509 33.4446 119.519 33.4656 119.524 33.4881C119.53 33.5106 119.53 33.534 119.524 33.5564L119.071 36.1185C118.937 36.8701 118.499 37.2148 117.692 37.2148C117.223 37.2148 116.94 36.9819 116.94 36.6682C116.94 36.2645 117.282 36.0471 117.953 35.8577C117.332 35.8235 117.121 35.5098 117.121 35.1154C117.121 35.0113 117.13 34.9074 117.149 34.8049L117.369 33.5627C117.377 33.5116 117.403 33.4652 117.442 33.4316C117.482 33.398 117.532 33.3795 117.583 33.3794C117.606 33.3787 117.628 33.3829 117.649 33.3919C117.67 33.4008 117.688 33.4142 117.703 33.4312C117.718 33.4481 117.729 33.4681 117.735 33.4898C117.741 33.5115 117.742 33.5342 117.739 33.5564V33.5564ZM117.763 36.8887C117.874 36.9029 117.986 36.8947 118.094 36.8644C118.201 36.8342 118.301 36.7826 118.388 36.7127C118.475 36.6428 118.547 36.5561 118.6 36.4577C118.653 36.3594 118.685 36.2514 118.695 36.1403L118.835 35.4508C118.44 36.0719 117.322 36.0316 117.322 36.6123C117.316 36.8017 117.509 36.8949 117.763 36.8949V36.8887Z" fill="#252525"/>
<path d="M122.535 35.1446C122.535 34.2409 122.964 33.3496 124.029 33.3496C124.65 33.3496 125.032 33.6602 125.032 34.3403C125.032 35.244 124.603 36.1353 123.538 36.1353C122.917 36.1353 122.535 35.8154 122.535 35.1446ZM124.656 34.3838C124.669 34.2904 124.66 34.1955 124.63 34.1062C124.6 34.0169 124.55 33.9355 124.485 33.8682C124.419 33.8009 124.339 33.7494 124.25 33.7177C124.161 33.686 124.067 33.6748 123.973 33.685C123.206 33.685 122.911 34.3806 122.911 35.098C122.898 35.1916 122.907 35.2869 122.936 35.3766C122.966 35.4663 123.015 35.5481 123.081 35.6157C123.147 35.6834 123.228 35.7352 123.316 35.7671C123.405 35.799 123.5 35.8102 123.594 35.7999C124.371 35.7999 124.669 35.1042 124.669 34.3838H124.656Z" fill="#252525"/>
<path d="M128.896 33.5565L128.629 35.0689C128.613 35.1393 128.605 35.2111 128.604 35.2832C128.604 35.5627 128.737 35.7708 129.206 35.7708C129.308 35.7837 129.411 35.7755 129.51 35.7466C129.608 35.7177 129.699 35.6687 129.778 35.6028C129.856 35.5368 129.92 35.4554 129.966 35.3635C130.011 35.2716 130.037 35.1713 130.042 35.0689L130.309 33.5565C130.318 33.5047 130.345 33.4577 130.385 33.4242C130.426 33.3906 130.477 33.3725 130.529 33.3733C130.552 33.372 130.575 33.3762 130.596 33.3855C130.617 33.3948 130.636 33.409 130.65 33.4269C130.665 33.4448 130.675 33.4658 130.68 33.4884C130.685 33.5109 130.684 33.5342 130.678 33.5565L130.411 35.0689C130.315 35.6217 130.063 36.1248 129.169 36.1248C128.486 36.1248 128.237 35.7987 128.237 35.3826C128.239 35.2784 128.249 35.1745 128.268 35.072L128.532 33.5596C128.541 33.5088 128.567 33.4627 128.606 33.4293C128.646 33.3958 128.695 33.3771 128.747 33.3764C128.769 33.3764 128.791 33.3814 128.811 33.391C128.831 33.4005 128.849 33.4143 128.863 33.4315C128.878 33.4487 128.888 33.4688 128.893 33.4904C128.899 33.512 128.9 33.5346 128.896 33.5565Z" fill="#252525"/>
<path opacity="0.1" d="M8.97473 39.6895H4.62696C4.5412 39.6895 4.47168 39.759 4.47168 39.8447C4.47168 39.9305 4.5412 40 4.62696 40H8.97473C9.06048 40 9.13 39.9305 9.13 39.8447C9.13 39.759 9.06048 39.6895 8.97473 39.6895Z" fill="#252525"/>
<path opacity="0.1" d="M8.64359 38.4395H7.40137C7.31561 38.4395 7.24609 38.509 7.24609 38.5947C7.24609 38.6805 7.31561 38.75 7.40137 38.75H8.64359C8.72935 38.75 8.79887 38.6805 8.79887 38.5947C8.79887 38.509 8.72935 38.4395 8.64359 38.4395Z" fill="#252525"/>
<path opacity="0.1" d="M8.95609 39.0645H7.71387C7.62811 39.0645 7.55859 39.134 7.55859 39.2197C7.55859 39.3055 7.62811 39.375 7.71387 39.375H8.95609C9.04185 39.375 9.11137 39.3055 9.11137 39.2197C9.11137 39.134 9.04185 39.0645 8.95609 39.0645Z" fill="#252525"/>
<path opacity="0.1" d="M7.08693 39.0645H6.77637C6.69061 39.0645 6.62109 39.134 6.62109 39.2197C6.62109 39.3055 6.69061 39.375 6.77637 39.375H7.08693C7.17268 39.375 7.2422 39.3055 7.2422 39.2197C7.2422 39.134 7.17268 39.0645 7.08693 39.0645Z" fill="#252525"/>
<path opacity="0.1" d="M26.3478 39.6895H21.6895C21.6037 39.6895 21.5342 39.759 21.5342 39.8447C21.5342 39.9305 21.6037 40 21.6895 40H26.3478C26.4335 40 26.5031 39.9305 26.5031 39.8447C26.5031 39.759 26.4335 39.6895 26.3478 39.6895Z" fill="#252525"/>
<path opacity="0.1" d="M26.0224 38.4395H24.6777C24.592 38.4395 24.5225 38.509 24.5225 38.5947C24.5225 38.6805 24.592 38.75 24.6777 38.75H26.0224C26.1082 38.75 26.1777 38.6805 26.1777 38.5947C26.1777 38.509 26.1082 38.4395 26.0224 38.4395Z" fill="#252525"/>
<path opacity="0.1" d="M26.3457 39.0645H25.001C24.9152 39.0645 24.8457 39.134 24.8457 39.2197C24.8457 39.3055 24.9152 39.375 25.001 39.375H26.3457C26.4314 39.375 26.501 39.3055 26.501 39.2197C26.501 39.134 26.4314 39.0645 26.3457 39.0645Z" fill="#252525"/>
<path opacity="0.1" d="M24.1748 39.0645H23.8643C23.7785 39.0645 23.709 39.134 23.709 39.2197C23.709 39.3055 23.7785 39.375 23.8643 39.375H24.1748C24.2606 39.375 24.3301 39.3055 24.3301 39.2197C24.3301 39.134 24.2606 39.0645 24.1748 39.0645Z" fill="#252525"/>
</svg>
