<svg width="31" height="40" viewBox="0 0 31 40" fill="none" xmlns="http://www.w3.org/2000/svg">
<g clip-path="url(#clip0_928_8179)">
<path d="M24.4734 8.14625C24.4607 8.11085 24.4481 8.07673 24.4342 8.0426C24.2016 8.10159 23.964 8.15088 23.7213 8.19049C23.6493 8.20313 23.5772 8.2145 23.5052 8.22335H23.4887C23.4091 8.23472 23.3295 8.24357 23.2486 8.25242C23.1677 8.26127 23.088 8.26885 23.0071 8.27517H23.0046C22.8416 8.28908 22.6772 8.29666 22.5104 8.30172C22.4261 8.30172 22.3419 8.30172 22.2576 8.30172C21.1753 8.29175 20.0991 8.13831 19.0572 7.84542V7.84542C18.9371 7.81255 18.8208 7.77969 18.7071 7.74556L18.5402 7.69374L18.4593 7.66846L18.3784 7.64192C18.4909 7.76831 18.5984 7.89471 18.702 8.03628C18.7324 8.0742 18.7614 8.11338 18.7892 8.15257C18.8335 8.21197 18.8777 8.27264 18.9156 8.33331L18.975 8.42179C19.1579 8.69812 19.3217 8.98656 19.4655 9.28509C19.4857 9.32554 19.5059 9.36725 19.5249 9.41149C19.5325 9.4254 19.5388 9.44056 19.5451 9.45447C19.5666 9.49871 19.5868 9.54295 19.6058 9.58845C19.6247 9.63395 19.6424 9.67314 19.6601 9.71485C19.6778 9.75656 19.6968 9.80459 19.7145 9.84883C19.7322 9.89307 19.7574 9.95753 19.7764 10.0119C19.7954 10.0662 19.8181 10.1269 19.8371 10.1838C19.8767 10.2984 19.9133 10.4147 19.947 10.5326C19.9774 10.6401 20.0052 10.7488 20.0317 10.86C20.0444 10.9144 20.057 10.97 20.0684 11.0256C20.0987 11.1684 20.1253 11.3151 20.1468 11.4617C20.1552 11.5148 20.1628 11.5691 20.1695 11.6247C20.1784 11.6841 20.1847 11.7511 20.191 11.8067C20.191 11.8409 20.1973 11.875 20.1998 11.9104C20.2024 11.9458 20.2087 12.0014 20.2112 12.0469C20.2137 12.0924 20.2175 12.1417 20.2201 12.1897C20.2226 12.2378 20.2201 12.2883 20.2264 12.3376C20.2264 12.4147 20.2264 12.4943 20.2264 12.5727C20.2264 12.6511 20.2264 12.7155 20.2264 12.7863C20.2264 12.8571 20.2201 12.962 20.215 13.0492C20.215 13.1086 20.2074 13.1668 20.2011 13.2249C20.1935 13.3185 20.1834 13.4107 20.172 13.5017C20.1569 13.6281 20.1392 13.7444 20.1177 13.8645C20.1114 13.905 20.1038 13.9441 20.0962 13.9846C20.0545 14.2033 20.0027 14.4194 19.942 14.6305C19.9268 14.6836 19.9104 14.7354 19.894 14.7872C19.8775 14.839 19.8573 14.9035 19.8371 14.9616C19.7663 15.1731 19.6858 15.3796 19.5957 15.581C19.578 15.6227 19.559 15.6632 19.5388 15.7074C19.5186 15.7516 19.5034 15.7858 19.4844 15.8249C19.4655 15.8641 19.4402 15.9134 19.4174 15.9513C19.3947 15.9893 19.382 16.0221 19.3631 16.0563C19.3441 16.0904 19.31 16.1574 19.2809 16.2067C19.2658 16.2345 19.2506 16.2635 19.2329 16.2914C19.2051 16.3394 19.1773 16.3874 19.1482 16.4342C19.0989 16.5176 19.0458 16.5998 18.9915 16.6807L18.9106 16.8071C18.8364 16.9141 18.7593 17.019 18.6793 17.1218L18.5895 17.2355C18.5541 17.2811 18.5162 17.3266 18.4783 17.3708C18.4404 17.415 18.4037 17.4605 18.3633 17.4972C18.3228 17.5338 18.2874 17.5844 18.2457 17.6236C18.204 17.6628 18.1674 17.7095 18.1193 17.75C18.0713 17.7904 18.0372 17.8347 17.9929 17.8764L17.8665 18.0028C17.6105 18.2448 17.3371 18.4678 17.0487 18.6702C17.002 18.703 16.9552 18.7359 16.9072 18.7675C16.8591 18.7991 16.8086 18.8332 16.7593 18.8636C16.6657 18.9242 16.5697 18.9824 16.4724 19.038L16.3182 19.1252C15.7832 19.4157 15.2149 19.6398 14.6257 19.7926C14.5296 19.8166 14.431 19.8406 14.3324 19.8608C14.2617 19.876 14.1896 19.8912 14.1176 19.9038L13.9482 19.9329L13.8458 19.9493L13.7118 19.967C13.6044 19.9809 13.4969 19.9923 13.3882 20.0011C13.3276 20.0075 13.2618 20.0113 13.2037 20.0138C13.1456 20.0163 13.0773 20.0214 13.0179 20.0226C12.9345 20.0226 12.8498 20.0226 12.7651 20.0226C10.7872 20.0226 8.8904 19.2369 7.49185 17.8384C6.0933 16.4398 5.3076 14.543 5.3076 12.5651C5.3076 10.5873 6.0933 8.69043 7.49185 7.29188C8.8904 5.89333 10.7872 5.10763 12.7651 5.10763C12.8498 5.10763 12.9332 5.10763 13.0179 5.10763L13.1885 5.11521L13.3617 5.12659C13.5917 5.14555 13.818 5.17336 14.0417 5.21254C14.0822 5.21886 14.1239 5.22645 14.1681 5.23529C14.2124 5.24414 14.2402 5.24793 14.2768 5.25678L14.4373 5.29091H14.4626L14.6295 5.33262L14.8064 5.38065C14.8658 5.39708 14.924 5.41478 14.9821 5.43374L15.1477 5.48683C15.312 5.54244 15.4738 5.60311 15.6318 5.6701H15.6482L15.7039 5.5614L15.7317 5.50831C15.9339 5.12912 17.1359 3.0031 19.0736 1.73912C17.2363 0.673382 15.1568 0.0955309 13.0331 0.0605469H13.0192H12.7664C9.44759 0.0605469 6.26475 1.37892 3.91803 3.72565C1.57131 6.07237 0.25293 9.25521 0.25293 12.574C0.25293 15.8927 1.57131 19.0756 3.91803 21.4223C6.26475 23.769 9.44759 25.0874 12.7664 25.0874H13.009H13.0192C15.0225 25.0474 16.9869 24.5268 18.7472 23.5695C20.5075 22.6122 22.0121 21.2463 23.1346 19.5864C24.2571 17.9266 24.9646 16.0215 25.1976 14.0314C25.4305 12.0412 25.1822 10.0242 24.4734 8.15004V8.14625ZM21.9783 4.1015C21.9403 4.05979 21.9024 4.01808 21.8632 3.9751L21.6345 4.04588L21.3905 4.12678L21.163 4.20515C20.8584 4.31385 20.5651 4.42761 20.2782 4.54389L20.0709 4.63237C20.0027 4.66145 19.9344 4.69052 19.8687 4.72085C19.736 4.78026 19.6058 4.83967 19.4794 4.89907C19.4162 4.92815 19.353 4.95848 19.2936 4.98882C18.8828 5.18853 18.5124 5.38571 18.1926 5.56898L18.0801 5.63345L18.0132 5.67263C17.9676 5.69791 17.9247 5.72445 17.8868 5.74973C17.6668 5.87613 17.4772 6.00253 17.3205 6.10239L17.2446 6.15294C17.1536 6.21235 17.0753 6.26544 17.0121 6.30968L16.9678 6.34128L16.9185 6.37541C17.0938 6.49338 17.2623 6.61978 17.4241 6.7546L17.4684 6.7723L17.5948 6.82412L17.7085 6.86962L17.8134 6.91133H17.8248C17.9019 6.94041 17.9828 6.97201 18.0675 7.00234C18.1231 7.02257 18.1813 7.04405 18.2419 7.06428L18.2811 7.07818L18.5415 7.16539L18.8183 7.25261L19.0205 7.31202C19.0913 7.33224 19.1621 7.35246 19.2354 7.37142C19.3087 7.39038 19.3808 7.41061 19.4566 7.42957C19.5325 7.44853 19.6386 7.47507 19.7334 7.49656L19.918 7.53701C20.0216 7.55976 20.1265 7.57998 20.2327 7.60021C20.4362 7.63812 20.6448 7.67225 20.8584 7.70006L20.9342 7.71017L21.115 7.73166L21.2489 7.74556C21.3968 7.76073 21.5472 7.77211 21.6989 7.77969C21.7798 7.77969 21.8607 7.78854 21.9429 7.7898H21.9745H22.2361H22.4775C23.0694 7.77785 23.6581 7.70113 24.2332 7.56102C23.679 6.29135 22.9169 5.12299 21.9783 4.10403V4.1015ZM19.8004 2.22196C19.7195 2.16508 19.6374 2.11073 19.5476 2.05764C19.492 2.09177 19.4351 2.1259 19.3808 2.16129L19.3151 2.20426C19.2645 2.23713 19.2152 2.27125 19.1659 2.30538L19.1545 2.31296C19.0964 2.35341 19.0395 2.39512 18.9826 2.43936L18.9485 2.46464C18.9043 2.49751 18.8613 2.53163 18.8221 2.56576C18.6957 2.66309 18.5794 2.76294 18.4644 2.86533C18.4151 2.90956 18.3658 2.9538 18.3178 2.99931C18.2154 3.09411 18.1155 3.19143 18.0195 3.29002L17.9474 3.36333L17.8311 3.48973C17.7882 3.53524 17.7465 3.582 17.7047 3.62751C17.5695 3.77666 17.4431 3.93086 17.3167 4.08128C17.2763 4.13057 17.2358 4.18113 17.1979 4.23043L17.0892 4.37326C16.9919 4.49965 16.9008 4.62605 16.8187 4.74613C16.7921 4.78279 16.7681 4.81944 16.7429 4.85483C16.5596 5.12406 16.4167 5.36043 16.3182 5.52348C16.3068 5.54371 16.2954 5.56393 16.284 5.58162C16.2726 5.59932 16.2436 5.65114 16.2284 5.68021C16.2132 5.70929 16.2094 5.71434 16.2006 5.72825L16.1703 5.78639L16.1602 5.80409C16.1606 5.80659 16.1606 5.80916 16.1602 5.81167C16.3599 5.67937 16.5587 5.55297 16.7568 5.43247L16.9249 5.33136L16.9539 5.31492C18.345 4.48814 19.8601 3.89064 21.4411 3.54535C20.9327 3.05846 20.3839 2.61573 19.8004 2.22196V2.22196Z" fill="#F69000"/>
<path d="M12.7662 34.0585C8.52521 34.0706 4.39677 32.6944 1.01119 30.1402C0.745605 29.941 0.521856 29.6915 0.352716 29.4058C0.183576 29.1201 0.0723561 28.804 0.0254074 28.4753C-0.0215413 28.1467 -0.00329962 27.812 0.0790908 27.4904C0.161481 27.1688 0.306407 26.8666 0.505593 26.601C0.704779 26.3355 0.954326 26.1117 1.23998 25.9426C1.52564 25.7734 1.84182 25.6622 2.17046 25.6153C2.4991 25.5683 2.83377 25.5866 3.15536 25.6689C3.47695 25.7513 3.77916 25.8963 4.04474 26.0954C6.56125 27.9815 9.62137 29.001 12.7662 29.001C15.9111 29.001 18.9712 27.9815 21.4877 26.0954C22.0241 25.6932 22.6983 25.5204 23.362 25.6153C23.6906 25.6622 24.0068 25.7734 24.2925 25.9426C24.5781 26.1117 24.8277 26.3355 25.0269 26.601C25.226 26.8666 25.371 27.1688 25.4534 27.4904C25.5358 27.812 25.554 28.1467 25.507 28.4753C25.4601 28.804 25.3489 29.1201 25.1797 29.4058C25.0106 29.6915 24.7868 29.941 24.5213 30.1402C21.1358 32.6946 17.0073 34.0708 12.7662 34.0585V34.0585Z" fill="#00AB55"/>
<path d="M4.42405 33.9431C4.38613 33.9431 4.34821 33.9406 4.31029 33.9355C4.26479 33.9355 4.21802 33.9355 4.17125 33.9355C3.3667 33.9355 2.59511 34.2552 2.0262 34.8241C1.4573 35.393 1.1377 36.1646 1.1377 36.9691C1.1377 37.7737 1.4573 38.5453 2.0262 39.1142C2.59511 39.6831 3.3667 40.0027 4.17125 40.0027C4.21802 40.0027 4.26479 40.0027 4.31029 40.0027L4.42405 39.9951C5.18032 39.9294 5.88448 39.5826 6.3975 39.0231C6.91053 38.4635 7.19514 37.732 7.19514 36.9729C7.19514 36.2138 6.91053 35.4823 6.3975 34.9227C5.88448 34.3632 5.18032 34.0164 4.42405 33.9507V33.9431ZM4.17125 38.7349C3.70193 38.7349 3.25183 38.5485 2.91998 38.2166C2.58812 37.8847 2.40168 37.4346 2.40168 36.9653C2.40168 36.496 2.58812 36.0459 2.91998 35.714C3.25183 35.3822 3.70193 35.1957 4.17125 35.1957C4.25583 35.1958 4.34029 35.2018 4.42405 35.2134L4.50368 35.2273L4.57067 35.2412C4.80502 35.2957 5.02571 35.3977 5.2191 35.5408L5.2646 35.5749C5.28988 35.5952 5.31516 35.6154 5.33917 35.6381C5.35934 35.654 5.37835 35.6714 5.39605 35.69L5.45167 35.7456C5.47027 35.7633 5.48759 35.7823 5.50349 35.8025C5.5217 35.8207 5.5382 35.8406 5.55279 35.8619C5.57027 35.8813 5.58632 35.902 5.60082 35.9238C5.66199 36.0074 5.71571 36.0962 5.76134 36.1892C5.77272 36.2132 5.7841 36.2373 5.79421 36.2613C5.8377 36.3589 5.87156 36.4605 5.89533 36.5646C5.89533 36.5899 5.9067 36.6139 5.91049 36.6392C5.91429 36.6645 5.91808 36.6797 5.92061 36.6999C5.92313 36.7201 5.92061 36.7429 5.92945 36.7643C5.94462 36.8979 5.94462 37.0327 5.92945 37.1663C5.92945 37.1878 5.92945 37.2093 5.92061 37.2308C5.91176 37.2522 5.91429 37.2712 5.91049 37.2914C5.9067 37.3116 5.90038 37.3407 5.89533 37.366C5.87156 37.4702 5.8377 37.5718 5.79421 37.6694C5.7841 37.6934 5.77272 37.7174 5.76134 37.7414C5.71571 37.8344 5.66199 37.9232 5.60082 38.0068C5.58632 38.0286 5.57027 38.0493 5.55279 38.0688C5.5382 38.09 5.5217 38.1099 5.50349 38.1282C5.48759 38.1483 5.47027 38.1673 5.45167 38.1851L5.39605 38.2407C5.37835 38.2593 5.35934 38.2766 5.33917 38.2925C5.31516 38.3152 5.28988 38.3355 5.2646 38.3557L5.2191 38.3898C5.02571 38.533 4.80502 38.6349 4.57067 38.6894L4.50368 38.7033L4.42405 38.7172C4.34029 38.7289 4.25583 38.7348 4.17125 38.7349V38.7349Z" fill="#252525"/>
<path d="M21.8664 33.9431C21.8285 33.9431 21.7906 33.9406 21.7527 33.9355C21.7072 33.9355 21.6604 33.9355 21.6136 33.9355C20.8091 33.9355 20.0375 34.2552 19.4686 34.8241C18.8997 35.393 18.5801 36.1646 18.5801 36.9691C18.5801 37.7737 18.8997 38.5453 19.4686 39.1142C20.0375 39.6831 20.8091 40.0027 21.6136 40.0027C21.6604 40.0027 21.7072 40.0027 21.7527 40.0027L21.8664 39.9951C22.6227 39.9294 23.3269 39.5826 23.8399 39.0231C24.3529 38.4635 24.6375 37.732 24.6375 36.9729C24.6375 36.2138 24.3529 35.4823 23.8399 34.9227C23.3269 34.3632 22.6227 34.0164 21.8664 33.9507V33.9431ZM21.6136 38.7349C21.1443 38.7349 20.6942 38.5485 20.3624 38.2166C20.0305 37.8847 19.8441 37.4346 19.8441 36.9653C19.8441 36.496 20.0305 36.0459 20.3624 35.714C20.6942 35.3822 21.1443 35.1957 21.6136 35.1957C21.6982 35.1958 21.7827 35.2018 21.8664 35.2134L21.9461 35.2273L22.0131 35.2412C22.2474 35.2957 22.4681 35.3977 22.6615 35.5408L22.707 35.5749C22.7323 35.5952 22.7575 35.6154 22.7816 35.6381C22.8017 35.654 22.8207 35.6714 22.8384 35.69L22.8941 35.7456C22.9127 35.7633 22.93 35.7823 22.9459 35.8025C22.9641 35.8207 22.9806 35.8406 22.9952 35.8619C23.0127 35.8813 23.0287 35.902 23.0432 35.9238C23.1044 36.0074 23.1581 36.0962 23.2037 36.1892C23.2151 36.2132 23.2265 36.2373 23.2366 36.2613C23.2801 36.3589 23.3139 36.4605 23.3377 36.5646C23.3377 36.5899 23.3491 36.6139 23.3529 36.6392C23.3567 36.6645 23.3605 36.6797 23.363 36.6999C23.3655 36.7201 23.363 36.7429 23.3718 36.7643C23.387 36.8979 23.387 37.0327 23.3718 37.1663C23.3718 37.1878 23.3718 37.2093 23.363 37.2308C23.3541 37.2522 23.3567 37.2712 23.3529 37.2914C23.3491 37.3116 23.3428 37.3407 23.3377 37.366C23.3139 37.4702 23.2801 37.5718 23.2366 37.6694C23.2265 37.6934 23.2151 37.7174 23.2037 37.7414C23.1581 37.8344 23.1044 37.9232 23.0432 38.0068C23.0287 38.0286 23.0127 38.0493 22.9952 38.0688C22.9806 38.09 22.9641 38.1099 22.9459 38.1282C22.93 38.1483 22.9127 38.1673 22.8941 38.1851C22.8764 38.204 22.8574 38.223 22.8384 38.2407C22.8207 38.2593 22.8017 38.2766 22.7816 38.2925C22.7575 38.3152 22.7323 38.3355 22.707 38.3557L22.6615 38.3898C22.4681 38.533 22.2474 38.6349 22.0131 38.6894L21.9461 38.7033L21.8664 38.7172C21.7827 38.7289 21.6982 38.7348 21.6136 38.7349Z" fill="#252525"/>
<path d="M30.6491 0.202812C30.6491 0.220508 30.6491 0.239468 30.6491 0.259691C30.6263 1.06864 30.2585 3.64716 26.8179 6.32681C26.056 6.91901 25.1772 7.34292 24.2394 7.57057C23.6643 7.71067 23.0756 7.78739 22.4837 7.79935H22.2423H21.9807H21.9491C21.8669 7.79935 21.786 7.79935 21.7051 7.78923C21.5535 7.78165 21.403 7.77028 21.2552 7.75511L21.1212 7.7412L20.9404 7.71972L20.8646 7.7096C20.651 7.6818 20.4424 7.64767 20.2389 7.60975C20.1327 7.58953 20.0278 7.5693 19.9242 7.54655L19.7396 7.5061C19.6448 7.48461 19.5526 7.46186 19.4628 7.43911C19.3731 7.41636 19.3137 7.40119 19.2416 7.38097C19.1696 7.36074 19.0975 7.34179 19.0268 7.32156L18.8245 7.26215L18.5477 7.17494L18.2873 7.08772L18.2481 7.07382C18.1875 7.0536 18.1293 7.03211 18.0737 7.01189C17.989 6.98155 17.9081 6.94995 17.831 6.92088H17.8197L17.7147 6.87917L17.601 6.83366L17.4746 6.78184L17.4303 6.76415L17.3545 6.73128L17.242 6.68199L17.1915 6.65923L17.1422 6.63775L17.0549 6.5973L17.0158 6.57834L16.9159 6.53031L16.8767 6.51135L16.8021 6.47343L16.921 6.38748L16.9703 6.35335L17.0145 6.32175C17.0777 6.27751 17.1561 6.22442 17.2471 6.16502L17.3229 6.11446C17.4796 6.01208 17.6692 5.89326 17.8892 5.76181C17.9321 5.73653 17.9751 5.70998 18.0156 5.6847L18.0826 5.64552L18.1951 5.58106C18.5148 5.39778 18.8852 5.20186 19.296 5.00089C19.3567 4.97055 19.4224 4.94022 19.4818 4.91115C19.6082 4.85174 19.7346 4.79233 19.8711 4.73293C19.9368 4.70259 20.0051 4.67352 20.0733 4.64445L20.2806 4.55597C20.5612 4.43968 20.8545 4.32592 21.1654 4.21722L21.3929 4.13885L21.6369 4.05796L21.8657 3.98718C22.0906 3.91892 22.3194 3.85319 22.5533 3.79379L22.7454 3.74575C23.0627 3.66865 23.3862 3.6004 23.7174 3.54478L23.9045 3.51318C23.9816 3.50054 24.0599 3.48917 24.137 3.47905C24.2344 3.46515 24.3304 3.45251 24.4278 3.44114L24.582 3.4247L24.7235 3.4108C24.7968 3.40322 24.8714 3.3969 24.9447 3.39184L25.1634 3.37667C25.3138 3.36782 25.4655 3.36277 25.6184 3.35898H25.5944H25.5641C25.4908 3.3476 25.3454 3.32485 25.1368 3.30589L25.0484 3.29831L24.9435 3.28946L24.721 3.27555L24.4594 3.26671H24.4467C24.3633 3.26671 24.2748 3.26671 24.1838 3.26671C23.2602 3.27005 22.3395 3.37131 21.4372 3.5688C19.8562 3.91409 18.3411 4.51159 16.95 5.33837V5.33837L16.921 5.3548L16.7528 5.45592C16.554 5.57642 16.3551 5.70282 16.1562 5.83512C16.1567 5.83261 16.1567 5.83004 16.1562 5.82753L16.1664 5.80984L16.1967 5.75169C16.2055 5.73779 16.2144 5.72136 16.2245 5.70366C16.2346 5.68597 16.2586 5.64173 16.2801 5.60507C16.3016 5.56842 16.3029 5.56715 16.3142 5.54693C16.4128 5.37882 16.5557 5.14751 16.7389 4.87828C16.7642 4.84289 16.7882 4.80624 16.8148 4.76958C16.8969 4.65077 16.988 4.52563 17.0853 4.39671L17.1902 4.23365C17.2281 4.18436 17.2686 4.1338 17.309 4.0845C17.4354 3.93409 17.5618 3.77988 17.6983 3.62568C17.74 3.58017 17.7817 3.53341 17.8247 3.4879L17.941 3.3615L18.013 3.28819C18.1091 3.1896 18.209 3.09228 18.3113 2.99748C18.3594 2.95197 18.4087 2.90773 18.458 2.8635C18.573 2.76111 18.6918 2.66126 18.8157 2.56393C18.8586 2.5298 18.9016 2.49568 18.9421 2.46281L18.9762 2.43753C19.0331 2.39456 19.09 2.35285 19.1481 2.31114L19.1595 2.30355C19.2088 2.26942 19.2581 2.2353 19.3086 2.20243L19.3744 2.15946C19.4287 2.12407 19.4856 2.08994 19.5412 2.05581C19.5968 2.02168 19.6575 1.98629 19.7182 1.95343C19.7788 1.92056 19.8256 1.89402 19.8799 1.86748L19.9179 1.84725C19.9722 1.81945 20.0266 1.7929 20.0822 1.76762C20.1378 1.74234 20.2086 1.71074 20.2693 1.6842C23.8286 0.195228 28.2652 1.47691 30.6339 -0.00195312C30.6428 0.0659638 30.6479 0.134327 30.6491 0.202812V0.202812Z" fill="#00AB55"/>
<g opacity="0.1">
<path opacity="0.1" d="M24.4342 8.04122C24.2016 8.10021 23.964 8.1495 23.7213 8.18911C23.6493 8.20175 23.5772 8.21312 23.5052 8.22197H23.4887C23.4091 8.23335 23.3295 8.2422 23.2486 8.25104C23.1677 8.25989 23.088 8.26748 23.0071 8.2738H23.0046C22.8416 8.2877 22.6772 8.29528 22.5104 8.30034C22.5913 8.30034 22.6709 8.30034 22.7531 8.30034C23.3325 8.30284 23.9108 8.24865 24.4797 8.13855C24.4607 8.10948 24.4481 8.07535 24.4342 8.04122ZM19.0408 7.85036C18.9207 7.8175 18.8044 7.78463 18.6906 7.75051L18.5238 7.69868L18.4429 7.6734L18.362 7.64686C18.4745 7.77326 18.5819 7.89966 18.6856 8.04122C18.7159 8.07914 18.745 8.11833 18.7728 8.15751C18.817 8.21692 18.8613 8.27759 18.8992 8.33826L18.9586 8.42674C19.1468 8.70056 19.3162 8.98688 19.4655 9.28372C19.4857 9.32417 19.5059 9.36588 19.5249 9.41012C19.5325 9.42402 19.5388 9.43919 19.5451 9.45309C19.5666 9.49733 19.5868 9.54157 19.6058 9.58707C19.6247 9.63258 19.6437 9.67176 19.6601 9.71347C19.6766 9.75518 19.6968 9.80322 19.7145 9.84745C19.7322 9.89169 19.7574 9.95616 19.7764 10.0105C19.7954 10.0649 19.8181 10.1255 19.8371 10.1824C19.8767 10.297 19.9133 10.4133 19.947 10.5313C19.9774 10.6387 20.0052 10.7474 20.0317 10.8586C20.0444 10.913 20.057 10.9686 20.0684 11.0242C20.0987 11.1671 20.1253 11.3137 20.1468 11.4603C20.1552 11.5134 20.1628 11.5677 20.1695 11.6234C20.1784 11.6828 20.1847 11.7498 20.191 11.8054C20.191 11.8395 20.1973 11.8736 20.1998 11.909C20.2024 11.9444 20.2087 12 20.2112 12.0455C20.2137 12.091 20.2175 12.1403 20.2201 12.1884C20.2226 12.2364 20.2201 12.2857 20.2264 12.3362C20.2264 12.4133 20.2264 12.493 20.2264 12.5713C20.2264 12.6497 20.2264 12.7142 20.2264 12.785C20.2264 12.8557 20.2201 12.9606 20.215 13.0479C20.215 13.1073 20.2074 13.1654 20.2011 13.2236C20.1935 13.3171 20.1834 13.4094 20.172 13.5004C20.1569 13.6268 20.1392 13.7431 20.1177 13.8631C20.1114 13.9036 20.1038 13.9428 20.0962 13.9832C20.0545 14.2019 20.0027 14.418 19.942 14.6291C19.9268 14.6822 19.9104 14.734 19.894 14.7858C19.8775 14.8377 19.8573 14.9021 19.8371 14.9603C19.7663 15.1718 19.6858 15.3782 19.5957 15.5796C19.578 15.6213 19.559 15.6618 19.5388 15.706C19.5186 15.7503 19.5034 15.7844 19.4844 15.8236C19.4655 15.8628 19.4402 15.912 19.4174 15.95C19.3947 15.9879 19.382 16.0207 19.3631 16.0549C19.3441 16.089 19.31 16.156 19.2809 16.2053C19.2658 16.2331 19.2506 16.2622 19.2329 16.29C19.2051 16.338 19.1773 16.386 19.1482 16.4328C19.0989 16.5162 19.0458 16.5984 18.9915 16.6793L18.9106 16.8057C18.8364 16.9127 18.7593 17.0176 18.6793 17.1204L18.5895 17.2342C18.5529 17.2797 18.5162 17.3252 18.4783 17.3694C18.4404 17.4137 18.4025 17.4592 18.3633 17.4958C18.3241 17.5325 18.2862 17.583 18.2457 17.6222C18.2053 17.6614 18.1661 17.7082 18.1193 17.7486C18.0726 17.7891 18.0372 17.8333 17.9929 17.875L17.8665 18.0014C17.6105 18.2434 17.3371 18.4664 17.0487 18.6688C17.002 18.7017 16.9552 18.7345 16.9072 18.7661L16.7593 18.8622C16.6657 18.9229 16.5697 18.981 16.4724 19.0366L16.3182 19.1238C15.7832 19.4143 15.2149 19.6384 14.6257 19.7912C14.5296 19.8152 14.431 19.8392 14.3324 19.8595C14.2617 19.8746 14.1896 19.8898 14.1176 19.9024L13.9482 19.9315L13.8458 19.9479L13.7118 19.9656C13.6044 19.9795 13.4969 19.9909 13.3882 19.9998L13.2037 20.0124L13.0179 20.0213C13.1013 20.0213 13.1847 20.0213 13.2707 20.0213C14.6817 20.0203 16.0634 19.619 17.2555 18.8641C18.4475 18.1092 19.401 17.0316 20.005 15.7565C20.6091 14.4814 20.839 13.061 20.6681 11.6605C20.4972 10.2599 19.9325 8.93649 19.0395 7.84404L19.0408 7.85036ZM13.272 5.11257C13.1885 5.11257 13.1038 5.11257 13.0192 5.11257L13.1898 5.12016L13.363 5.13153C13.593 5.15049 13.8193 5.1783 14.043 5.21748C14.0834 5.2238 14.1251 5.23139 14.1694 5.24024C14.2136 5.24908 14.2414 5.25288 14.2781 5.26172L14.4386 5.29585H14.4639L14.6307 5.33756L14.8077 5.38559C14.8671 5.40203 14.9252 5.41972 14.9834 5.43868L15.149 5.49177C15.3133 5.54738 15.4751 5.60806 15.6331 5.67505H15.6495L15.7051 5.56634L15.7329 5.51326C14.9411 5.24154 14.109 5.10606 13.272 5.11257V5.11257ZM0.758523 12.5701C0.757854 9.29464 2.04147 6.14952 4.3338 3.80993C6.62612 1.47034 9.7444 0.122811 13.0192 0.0566406H12.7664C9.44759 0.0566406 6.26475 1.37502 3.91803 3.72174C1.57131 6.06846 0.25293 9.25131 0.25293 12.5701C0.25293 15.8888 1.57131 19.0717 3.91803 21.4184C6.26475 23.7651 9.44759 25.0835 12.7664 25.0835H13.009C9.73605 25.0147 6.62035 23.666 4.33019 21.3267C2.04003 18.9874 0.7578 15.8438 0.758523 12.5701V12.5701Z" fill="black"/>
<path opacity="0.1" d="M1.51684 30.1407C4.83289 32.6439 8.8645 34.0173 13.0191 34.059C12.9344 34.059 12.851 34.059 12.7663 34.059C8.52527 34.0711 4.39682 32.695 1.01125 30.1407C0.570071 29.8092 0.2495 29.3424 0.0984686 28.8116C-0.0525629 28.2808 -0.0257575 27.7152 0.174793 27.2011C0.375343 26.6869 0.738621 26.2526 1.20917 25.9643C1.67972 25.6759 2.23169 25.5495 2.78082 25.6043C2.27471 25.6554 1.7958 25.8581 1.4067 26.1858C1.01759 26.5134 0.736397 26.9509 0.599861 27.4409C0.463325 27.9309 0.477801 28.4508 0.641399 28.9324C0.804996 29.4141 1.1101 29.8352 1.51684 30.1407V30.1407Z" fill="black"/>
<path opacity="0.1" d="M23.2578 25.603C22.799 25.648 22.3615 25.8191 21.9938 26.0972C19.4821 27.9925 16.4189 29.0136 13.2723 29.0044H13.0195C16.0795 28.9592 19.0457 27.941 21.4882 26.0972C21.9944 25.7148 22.6267 25.5382 23.2578 25.603Z" fill="black"/>
<path opacity="0.1" d="M1.64329 36.9653C1.6435 36.2047 1.92945 35.4719 2.44449 34.9121C2.95952 34.3524 3.66605 34.0065 4.42405 33.9431C4.38613 33.9431 4.34821 33.9406 4.31029 33.9355C4.26479 33.9355 4.21802 33.9355 4.17125 33.9355C3.3667 33.9355 2.59511 34.2552 2.0262 34.8241C1.4573 35.393 1.1377 36.1646 1.1377 36.9691C1.1377 37.7737 1.4573 38.5453 2.0262 39.1142C2.59511 39.6831 3.3667 40.0027 4.17125 40.0027C4.21802 40.0027 4.26479 40.0027 4.31029 40.0027L4.42405 39.9951C3.66474 39.9316 2.95714 39.5847 2.44192 39.0233C1.92669 38.462 1.64159 37.7273 1.64329 36.9653V36.9653ZM4.67685 35.1957C4.59228 35.1958 4.50781 35.2018 4.42405 35.2134L4.50368 35.2273L4.57067 35.2412C4.80502 35.2957 5.02571 35.3977 5.2191 35.5408L5.2646 35.5749C5.28988 35.5952 5.31516 35.6154 5.33917 35.6381C5.35901 35.6544 5.37799 35.6717 5.39605 35.69L5.45167 35.7456L5.50349 35.8025C5.52097 35.8214 5.53743 35.8412 5.55279 35.8619C5.56922 35.8821 5.58565 35.9023 5.60082 35.9238C5.66199 36.0074 5.71571 36.0962 5.76134 36.1892C5.77272 36.2132 5.7841 36.2373 5.79421 36.2613C5.8377 36.3589 5.87156 36.4605 5.89533 36.5646C5.89533 36.5899 5.9067 36.6139 5.91049 36.6392C5.91429 36.6645 5.91808 36.6797 5.92061 36.6999C5.92313 36.7201 5.92061 36.7429 5.92945 36.7643C5.94462 36.8979 5.94462 37.0327 5.92945 37.1663C5.92945 37.1878 5.92945 37.2093 5.92061 37.2308C5.91176 37.2522 5.91429 37.2712 5.91049 37.2914C5.9067 37.3116 5.90038 37.3407 5.89533 37.366C5.87156 37.4702 5.8377 37.5718 5.79421 37.6694C5.7841 37.6934 5.77272 37.7174 5.76134 37.7414C5.71571 37.8344 5.66199 37.9232 5.60082 38.0068C5.58565 38.0283 5.56922 38.0485 5.55279 38.0688C5.53743 38.0894 5.52097 38.1093 5.50349 38.1282L5.45167 38.1851L5.39605 38.2407C5.37799 38.2589 5.35901 38.2762 5.33917 38.2925C5.31516 38.3152 5.28988 38.3355 5.2646 38.3557L5.2191 38.3898C5.02571 38.533 4.80502 38.6349 4.57067 38.6894L4.50368 38.7033L4.42405 38.7172C4.50781 38.7289 4.59228 38.7348 4.67685 38.7349C5.14617 38.7349 5.59627 38.5485 5.92813 38.2166C6.25999 37.8847 6.44642 37.4346 6.44642 36.9653C6.44642 36.496 6.25999 36.0459 5.92813 35.714C5.59627 35.3822 5.14617 35.1957 4.67685 35.1957V35.1957Z" fill="#FCFCFC"/>
<path opacity="0.1" d="M19.0866 36.9653C19.0869 36.2047 19.3728 35.4719 19.8879 34.9121C20.4029 34.3524 21.1094 34.0065 21.8674 33.9431C21.8295 33.9431 21.7916 33.9406 21.7537 33.9355C21.7082 33.9355 21.6614 33.9355 21.6146 33.9355C20.8101 33.9355 20.0385 34.2552 19.4696 34.8241C18.9007 35.393 18.5811 36.1646 18.5811 36.9691C18.5811 37.7737 18.9007 38.5453 19.4696 39.1142C20.0385 39.6831 20.8101 40.0027 21.6146 40.0027C21.6614 40.0027 21.7082 40.0027 21.7537 40.0027L21.8674 39.9951C21.1081 39.9316 20.4005 39.5847 19.8853 39.0233C19.3701 38.462 19.085 37.7273 19.0866 36.9653V36.9653ZM22.1202 35.1957C22.0356 35.1958 21.9512 35.2018 21.8674 35.2134L21.9471 35.2273L22.014 35.2412C22.2484 35.2957 22.4691 35.3977 22.6625 35.5408L22.708 35.5749C22.7332 35.5952 22.7585 35.6154 22.7825 35.6381C22.8024 35.6544 22.8214 35.6717 22.8394 35.69L22.895 35.7456L22.9469 35.8025C22.9643 35.8214 22.9808 35.8412 22.9962 35.8619C23.0126 35.8821 23.029 35.9023 23.0442 35.9238C23.1054 36.0074 23.1591 36.0962 23.2047 36.1892C23.2161 36.2132 23.2275 36.2373 23.2376 36.2613C23.2811 36.3589 23.3149 36.4605 23.3387 36.5646C23.3387 36.5899 23.3501 36.6139 23.3539 36.6392C23.3577 36.6645 23.3615 36.6797 23.364 36.6999C23.3665 36.7201 23.364 36.7429 23.3728 36.7643C23.388 36.8979 23.388 37.0327 23.3728 37.1663C23.3728 37.1878 23.3728 37.2093 23.364 37.2308C23.3551 37.2522 23.3577 37.2712 23.3539 37.2914C23.3501 37.3116 23.3438 37.3407 23.3387 37.366C23.3149 37.4702 23.2811 37.5718 23.2376 37.6694C23.2275 37.6934 23.2161 37.7174 23.2047 37.7414C23.1591 37.8344 23.1054 37.9232 23.0442 38.0068C23.029 38.0283 23.0126 38.0485 22.9962 38.0688C22.9808 38.0894 22.9643 38.1093 22.9469 38.1282L22.895 38.1851C22.8773 38.204 22.8584 38.223 22.8394 38.2407C22.8214 38.2589 22.8024 38.2762 22.7825 38.2925C22.7585 38.3152 22.7332 38.3355 22.708 38.3557L22.6625 38.3898C22.4691 38.533 22.2484 38.6349 22.014 38.6894L21.9471 38.7033L21.8674 38.7172C21.9512 38.7289 22.0356 38.7348 22.1202 38.7349C22.5895 38.7349 23.0396 38.5485 23.3715 38.2166C23.7034 37.8847 23.8898 37.4346 23.8898 36.9653C23.8898 36.496 23.7034 36.0459 23.3715 35.714C23.0396 35.3822 22.5895 35.1957 22.1202 35.1957V35.1957Z" fill="white"/>
<path opacity="0.1" d="M17.935 6.75574C18.8198 7.13493 20.5514 7.74417 22.4853 7.79726H22.2439H21.9823H21.9507C21.8685 7.79726 21.7876 7.79726 21.7067 7.78715C21.555 7.77956 21.4046 7.76819 21.2567 7.75302L21.1227 7.73912L20.942 7.71763L20.8662 7.70752C20.6525 7.67971 20.444 7.64558 20.2405 7.60766C20.1343 7.58744 20.0294 7.56721 19.9258 7.54446L19.7412 7.50402C19.6464 7.48253 19.5541 7.45978 19.4644 7.43702C19.3747 7.41427 19.3152 7.3991 19.2432 7.37888C19.1712 7.35866 19.0991 7.3397 19.0283 7.31947L18.8261 7.26007L18.5493 7.17285L18.2889 7.08564L18.2497 7.07173C18.189 7.05151 18.1309 7.03002 18.0753 7.0098C17.9906 6.97946 17.9097 6.94786 17.8326 6.91879H17.8212L17.7163 6.87708L17.6025 6.83158L17.4761 6.77975L17.4319 6.76206L17.3561 6.72919L17.2436 6.6799L17.193 6.65715L17.1437 6.63566L17.0565 6.59521L17.0173 6.57625L16.9175 6.52822L16.8783 6.50926L16.8037 6.47134L16.9225 6.38539L16.9718 6.35126L17.0161 6.31966C17.0793 6.27542 17.1576 6.22234 17.2486 6.16293L17.3245 6.11237C17.4812 6.00999 17.6708 5.89117 17.8907 5.75972C17.9337 5.73444 17.9767 5.7079 18.0171 5.68262L18.0841 5.64343L18.1966 5.57897C18.5164 5.39569 18.8868 5.19977 19.2976 4.9988C19.3582 4.96846 19.424 4.93813 19.4834 4.90906C19.6098 4.84965 19.7362 4.79024 19.8727 4.73084C19.9384 4.7005 20.0066 4.67143 20.0749 4.64236L20.2822 4.55388C20.5628 4.43759 20.856 4.32383 21.167 4.21513L21.3945 4.13676L21.6385 4.05587L21.8672 3.98509C22.0922 3.91683 22.321 3.8511 22.5548 3.7917L22.747 3.74366C23.0642 3.66656 23.3878 3.59831 23.719 3.54269L23.906 3.51109C23.9831 3.49845 24.0615 3.48708 24.1386 3.47696C24.2359 3.46306 24.332 3.45042 24.4293 3.43904L24.5835 3.42261L24.7251 3.40871C24.7984 3.40113 24.873 3.39481 24.9463 3.38975L25.165 3.37458C25.3154 3.36573 25.4671 3.36068 25.62 3.35689H25.596H25.5657C25.4923 3.34551 25.347 3.32276 25.1384 3.3038L25.0499 3.29621L24.945 3.28737L24.7226 3.27346L24.4609 3.26462H24.691C25.1714 3.25727 25.6515 3.2928 26.1256 3.37079C24.8515 3.40757 23.5887 3.62025 22.3728 4.00278L21.9823 4.12918C20.3665 4.67102 18.8348 5.43688 17.4319 6.40435L17.3131 6.4903C17.3131 6.4903 17.5356 6.58636 17.935 6.75574Z" fill="black"/>
<path opacity="0.1" d="M30.6496 0.202812C30.6496 0.220508 30.6496 0.239468 30.6496 0.259691C28.1949 1.31891 24.111 0.296347 20.7905 1.68546C20.5392 1.79154 20.2958 1.91573 20.0625 2.05707C19.9753 2.11016 19.888 2.16451 19.8097 2.22139C18.4193 3.15042 17.4195 4.56987 16.9569 5.31689L16.9278 5.33332L16.7597 5.43444C16.5608 5.55494 16.362 5.68133 16.1631 5.81363C16.1636 5.81112 16.1636 5.80855 16.1631 5.80605L16.1732 5.78835L16.2035 5.73021C16.2124 5.7163 16.2212 5.69987 16.2313 5.68218C16.2415 5.66448 16.2655 5.62024 16.287 5.58359C16.3084 5.54693 16.3097 5.54567 16.3211 5.52544C16.4197 5.35733 16.5625 5.12602 16.7458 4.8568C16.7711 4.8214 16.7951 4.78475 16.8216 4.74809C16.9038 4.62928 16.9948 4.50414 17.0921 4.37522L17.1907 4.23365C17.2286 4.18436 17.2691 4.1338 17.3095 4.0845C17.4359 3.93409 17.5623 3.77988 17.6988 3.62568C17.7405 3.58017 17.7822 3.53341 17.8252 3.4879L17.9415 3.3615L18.0136 3.28819C18.1096 3.1896 18.2095 3.09228 18.3119 2.99748C18.3599 2.95197 18.4092 2.90773 18.4585 2.8635C18.5735 2.76111 18.6923 2.66126 18.8162 2.56393C18.8592 2.5298 18.9021 2.49568 18.9426 2.46281L18.9767 2.43753C19.0336 2.39456 19.0905 2.35285 19.1486 2.31114L19.16 2.30355C19.2093 2.26942 19.2586 2.2353 19.3091 2.20243L19.3749 2.15946C19.4292 2.12407 19.4861 2.08994 19.5417 2.05581C19.5973 2.02168 19.658 1.98629 19.7187 1.95343C19.7793 1.92056 19.8261 1.89402 19.8805 1.86748L19.9184 1.84725C19.9727 1.81945 20.0271 1.7929 20.0827 1.76762C20.1383 1.74234 20.2091 1.71074 20.2698 1.6842C23.8291 0.195228 28.2657 1.47691 30.6344 -0.00195312C30.6433 0.0659638 30.6484 0.134327 30.6496 0.202812V0.202812Z" fill="black"/>
</g>
</g>
<defs>
<clipPath id="clip0_928_8179">
<rect width="30.6491" height="40" fill="white"/>
</clipPath>
</defs>
</svg>
